<?xml version="1.0" encoding="UTF-8" standalone="no"?><!DOCTYPE svg PUBLIC "-//W3C//DTD SVG 1.1//EN" "http://www.w3.org/Graphics/SVG/1.1/DTD/svg11.dtd"><svg width="100%" height="100%" viewBox="0 0 178 177" version="1.1" xmlns="http://www.w3.org/2000/svg" xmlns:xlink="http://www.w3.org/1999/xlink" xml:space="preserve" xmlns:serif="http://www.serif.com/" style="fill-rule:evenodd;clip-rule:evenodd;stroke-linejoin:round;stroke-miterlimit:2;"><g><path d="M88.999,175c-48.024,-0 -86.956,-38.951 -86.956,-87c0,-48.048 38.932,-87 86.956,-87c48.025,-0 86.957,38.952 86.957,87c0,48.049 -38.932,87 -86.957,87" style="fill:#8e8dc6;fill-rule:nonzero;"/><g><clipPath id="_clip1"><path d="M2.044,88c-0,48.049 38.931,87 86.956,87c48.025,0 86.957,-38.951 86.957,-87c-0,-48.048 -38.932,-87 -86.957,-87c-48.025,0 -86.956,38.952 -86.956,87Z" clip-rule="nonzero"/></clipPath><g clip-path="url(#_clip1)"><path d="M53.932,66.953c2.406,-0.793 5.469,1.939 6.838,6.102c1.371,4.161 0.531,8.179 -1.877,8.97c-2.404,0.793 -5.469,-1.937 -6.838,-6.1c-1.371,-4.161 -0.531,-8.179 1.877,-8.972" style="fill:#f5be92;"/><path d="M124.297,66.954c-2.408,-0.794 -5.471,1.938 -6.84,6.101c-1.371,4.161 -0.531,8.179 1.875,8.97c2.408,0.793 5.471,-1.938 6.842,-6.1c1.371,-4.161 0.529,-8.179 -1.877,-8.971" style="fill:#f5be92;"/><path d="M112.01,34.076c6.732,1.073 10.457,5.688 12.051,11.953c4.15,16.307 -4.537,51.674 -34.61,52.095c-15.505,0.218 -26.675,-3.726 -30.746,-16.277c-4.068,-12.552 -5.738,-32.778 3.106,-44.114c11.129,-14.261 34.486,-14.395 50.199,-3.657" style="fill:#f0f0f0;"/><path d="M76.446,117.21c-28.145,12.339 -36.586,18.915 -39.924,21.868c-5.142,4.551 -8.162,22.107 -11.195,36.509l127.346,-0c-3.034,-14.402 -5.704,-31.958 -10.846,-36.509c-3.336,-2.953 -11.471,-9.361 -39.613,-21.699l-25.768,-0.169Z" style="fill:#474748;"/><path d="M75.51,92.616l0,33.366c7.514,8.885 19.812,9.203 27.328,0l0,-33.366c0,-16.845 -27.328,-16.845 -27.328,0" style="fill:#f5be92;"/><path d="M89.174,36.609c-45.863,0 -29.369,59.754 -26.373,64.166c3.303,4.863 18.963,13.42 26.373,13.42c7.41,0 23.07,-9.64 26.375,-14.505c2.994,-4.411 19.488,-63.081 -26.375,-63.081" style="fill:#f5be92;"/><path d="M118.105,60.854c-0.024,-0.416 -0.049,-0.891 -0.13,-1.399c-0.11,-1.031 -0.383,-2.208 -0.7,-3.466c-0.339,-1.247 -0.753,-2.557 -1.159,-3.846c-0.408,-1.286 -0.777,-2.558 -1.056,-3.737c-0.259,-1.18 -0.441,-2.267 -0.493,-3.188c-0.055,-0.46 -0.037,-0.881 -0.045,-1.249c-0.015,-0.369 0.006,-0.688 0.03,-0.951c0.037,-0.522 0.058,-0.82 0.058,-0.82l-3.232,0l-0.397,-1.771c-0,0 -0.725,0.213 -1.994,0.585c-0.447,0.126 -0.979,0.291 -1.543,0.475l0.079,-2.445c-0,0 -0.5,0.04 -1.376,0.108c-0.437,0.035 -0.966,0.078 -1.573,0.126c-0.609,0.04 -1.289,0.102 -2.018,0.235c-2.95,0.386 -6.74,1.246 -10.465,2.168c-3.713,0.927 -7.411,1.814 -10.234,2.26c-0.703,0.144 -1.353,0.222 -1.93,0.278c-0.578,0.065 -1.082,0.121 -1.497,0.167c-0.833,0.094 -1.309,0.147 -1.309,0.147c-0,0 0.477,0.014 1.314,0.039c0.42,0.013 0.93,0.027 1.515,0.045c0.587,0.025 1.25,0.038 1.968,-0.005c2.889,-0.046 6.735,-0.41 10.545,-0.808c3.742,-0.383 7.447,-0.681 10.206,-0.661c-4.036,1.483 -8.96,3.553 -13.998,5.15c-2.768,0.852 -5.589,1.486 -8.28,1.835c-1.348,0.126 -2.656,0.273 -3.903,0.245c-1.25,0.057 -2.426,-0.054 -3.517,-0.136c-1.097,-0.036 -2.075,-0.284 -2.961,-0.401c-0.887,-0.115 -1.639,-0.319 -2.261,-0.478c-1.248,-0.314 -1.962,-0.492 -1.962,-0.492c-0,0 0.694,0.244 1.91,0.671c0.609,0.215 1.346,0.49 2.226,0.687c0.877,0.199 1.851,0.541 2.956,0.681c1.099,0.184 2.291,0.407 3.574,0.468c1.28,0.145 2.632,0.12 4.04,0.117c2.804,-0.105 5.791,-0.493 8.719,-1.11c5.847,-1.282 11.468,-3.121 15.686,-4.179c1.054,-0.286 2.021,-0.504 2.877,-0.704c0.855,-0.21 1.602,-0.368 2.219,-0.48c0.274,-0.054 0.518,-0.102 0.738,-0.145c0.068,0.322 0.143,0.657 0.257,1.009c0.285,1.076 0.744,2.266 1.283,3.485c0.557,1.207 1.201,2.437 1.861,3.628c1.329,2.368 2.569,4.704 3.185,6.614c0.177,0.471 0.29,0.914 0.394,1.31c0.116,0.393 0.194,0.742 0.239,1.033c0.108,0.582 0.17,0.915 0.17,0.915c-0,0 0.005,-0.339 0.014,-0.933c0.013,-0.3 0.006,-0.662 -0.03,-1.077" style="fill:#f0f0f0;fill-rule:nonzero;"/><path d="M114.585,35.208c-0.189,-0.104 -0.371,-0.531 -0.093,-0.934c0.238,-0.416 1.067,-0.665 1.619,-0.723c0.585,-0.064 1.008,-0.02 1.008,-0.02c0,-0 -0.293,-0.287 -0.85,-0.636c-0.283,-0.165 -0.632,-0.356 -1.065,-0.482c-0.422,-0.134 -0.948,-0.226 -1.559,-0.123c-0.597,0.093 -1.201,0.37 -1.666,0.792c-0.463,0.426 -0.78,0.97 -0.973,1.485c-0.176,0.484 -0.263,0.894 -0.298,1.145c-0.039,0.267 -0.061,0.42 -0.061,0.42l4.279,-0.535c0.008,0.016 -0.155,-0.206 -0.341,-0.389" style="fill:#f0f0f0;fill-rule:nonzero;"/><path d="M71.539,30.747c1.473,-0.059 2.845,0.011 4.017,0.169c1.17,0.148 2.137,0.326 2.809,0.494c0.671,0.156 1.055,0.246 1.055,0.246l0.732,-4.25c0,-0 -0.445,-0.031 -1.225,-0.085c-0.775,-0.062 -1.898,-0.089 -3.237,-0.042c-1.338,0.038 -2.906,0.209 -4.55,0.547c-1.641,0.371 -3.361,0.91 -4.958,1.714c-1.593,0.815 -3.039,1.865 -4.23,2.996c-1.157,1.17 -2.09,2.369 -2.728,3.487c-0.36,0.532 -0.583,1.08 -0.822,1.537c-0.243,0.458 -0.404,0.877 -0.533,1.225c-0.265,0.687 -0.416,1.079 -0.416,1.079c0,-0 0.212,-0.362 0.582,-0.997c0.18,-0.318 0.402,-0.701 0.711,-1.106c0.304,-0.408 0.6,-0.895 1.026,-1.348c0.777,-0.963 1.838,-1.94 3.053,-2.829c1.249,-0.85 2.68,-1.565 4.179,-2.051c1.507,-0.474 3.072,-0.694 4.535,-0.786" style="fill:#f0f0f0;fill-rule:nonzero;"/><path d="M104.019,93.764c-0.292,-0.131 -0.608,-0.327 -0.952,-0.533c-0.686,-0.411 -1.455,-0.964 -2.301,-1.538c-0.841,-0.594 -1.764,-1.203 -2.756,-1.788c-0.504,-0.283 -0.998,-0.597 -1.539,-0.866c-0.271,-0.131 -0.54,-0.272 -0.817,-0.386c-0.293,-0.103 -0.593,-0.176 -0.887,-0.254c-0.287,-0.072 -0.61,-0.094 -0.917,-0.092c-0.31,0.004 -0.6,-0.027 -0.904,0.056c-0.3,0.054 -0.586,0.131 -0.856,0.199c-0.268,0.085 -0.516,0.23 -0.747,0.351c-0.463,0.215 -0.84,0.582 -1.134,0.891c-0.138,0.158 -0.284,0.301 -0.368,0.434c-0.066,0.142 -0.128,0.272 -0.183,0.39c-0.092,0.202 -0.156,0.366 -0.204,0.499c-0.049,-0.133 -0.113,-0.297 -0.205,-0.499c-0.055,-0.118 -0.117,-0.248 -0.183,-0.39c-0.084,-0.133 -0.23,-0.276 -0.368,-0.434c-0.294,-0.309 -0.671,-0.676 -1.134,-0.891c-0.231,-0.121 -0.479,-0.266 -0.747,-0.351c-0.27,-0.068 -0.556,-0.145 -0.856,-0.199c-0.304,-0.083 -0.593,-0.052 -0.904,-0.056c-0.307,-0.002 -0.63,0.02 -0.917,0.092c-0.294,0.078 -0.594,0.151 -0.887,0.254c-0.277,0.114 -0.546,0.255 -0.817,0.386c-0.541,0.269 -1.035,0.583 -1.539,0.866c-0.992,0.585 -1.915,1.194 -2.756,1.788c-0.846,0.574 -1.615,1.127 -2.301,1.538c-0.343,0.206 -0.66,0.402 -0.952,0.533c-0.292,0.135 -0.544,0.287 -0.762,0.356c-0.44,0.167 -0.692,0.263 -0.692,0.263l0.039,0.297c-0,-0 0.283,-0.016 0.779,-0.044c0.257,0.001 0.544,-0.076 0.887,-0.14c0.349,-0.057 0.719,-0.169 1.129,-0.286c0.821,-0.234 1.745,-0.574 2.708,-0.965c0.964,-0.375 1.958,-0.818 2.942,-1.169c0.492,-0.164 0.991,-0.316 1.468,-0.392c0.238,-0.041 0.474,-0.074 0.697,-0.126c0.222,-0.013 0.43,-0.054 0.636,-0.088c0.207,-0.073 0.392,-0.053 0.576,-0.102c0.181,-0.025 0.374,-0.098 0.536,-0.095c0.167,-0.009 0.336,-0.04 0.505,-0.065c0.17,-0.029 0.318,0.01 0.482,-0.005c0.345,-0.03 0.602,0.016 0.884,0.044c0.144,0.017 0.286,0.006 0.427,0.05c0.149,0.05 0.285,0.096 0.408,0.137c0.497,0.159 0.817,0.21 0.817,0.21l0.1,-0.112l0.099,0.112c-0,-0 0.32,-0.051 0.818,-0.21c0.123,-0.041 0.258,-0.087 0.407,-0.137c0.141,-0.044 0.283,-0.033 0.428,-0.05c0.281,-0.028 0.539,-0.074 0.883,-0.044c0.164,0.015 0.312,-0.024 0.482,0.005c0.169,0.025 0.338,0.056 0.506,0.065c0.161,-0.003 0.354,0.07 0.535,0.095c0.184,0.049 0.369,0.029 0.576,0.102c0.206,0.034 0.414,0.075 0.636,0.088c0.223,0.052 0.459,0.085 0.697,0.126c0.477,0.076 0.977,0.228 1.468,0.392c0.984,0.351 1.978,0.794 2.942,1.169c0.963,0.391 1.887,0.731 2.708,0.965c0.41,0.117 0.78,0.229 1.129,0.286c0.343,0.064 0.63,0.141 0.887,0.14c0.496,0.028 0.779,0.044 0.779,0.044l0.039,-0.297c-0,-0 -0.252,-0.096 -0.692,-0.263c-0.218,-0.069 -0.47,-0.221 -0.762,-0.356" style="fill:#f0f0f0;fill-rule:nonzero;"/></g></g></g></svg>