<?xml version="1.0" encoding="UTF-8" standalone="no"?><!DOCTYPE svg PUBLIC "-//W3C//DTD SVG 1.1//EN" "http://www.w3.org/Graphics/SVG/1.1/DTD/svg11.dtd"><svg width="100%" height="100%" viewBox="0 0 177 177" version="1.1" xmlns="http://www.w3.org/2000/svg" xmlns:xlink="http://www.w3.org/1999/xlink" xml:space="preserve" xmlns:serif="http://www.serif.com/" style="fill-rule:evenodd;clip-rule:evenodd;stroke-linejoin:round;stroke-miterlimit:2;"><g><path d="M88,174.88c-48.042,-0 -86.987,-38.966 -86.987,-87.031c-0,-48.066 38.945,-87.03 86.987,-87.03c48.043,-0 86.988,38.964 86.988,87.03c0,48.065 -38.945,87.031 -86.988,87.031" style="fill:#546c90;fill-rule:nonzero;"/><g><clipPath id="_clip1"><path d="M1.012,87.849c0,48.065 38.946,87.031 86.988,87.031c48.043,0 86.988,-38.966 86.988,-87.031c0,-48.066 -38.945,-87.03 -86.988,-87.03c-48.042,0 -86.988,38.964 -86.988,87.03Z" clip-rule="nonzero"/></clipPath><g clip-path="url(#_clip1)"><path d="M100.238,122.263c-0.263,0.414 -26.086,0.824 -26.372,1.232c-8.109,11.57 -25.633,16.639 -39.567,19.754c-13.866,3.101 -14.402,20.714 -14.423,32.445l135.176,0c-0.02,-11.731 -0.278,-29.281 -14.424,-32.445c-14.148,-3.163 -32.697,-8.888 -40.39,-20.986" style="fill:#878aa0;"/><path d="M69.974,101.143c0.198,-0.858 0.311,-1.349 0.311,-1.349l-6.955,-0.773c0.028,-1.471 0.049,-2.837 0.096,-4.028c0.051,-1.695 0.144,-3.053 0.235,-3.981c0.095,-0.919 0.15,-1.444 0.15,-1.444l-8.625,0c-0,0 0.082,0.623 0.225,1.714c0.149,1.081 0.406,2.592 0.764,4.33c0.695,3.502 1.807,7.922 2.47,12.336c0.294,2.199 0.526,4.417 0.451,6.479c-0.072,2.055 -0.325,3.996 -0.85,5.578c-0.125,0.402 -0.244,0.787 -0.357,1.154c-0.16,0.348 -0.311,0.679 -0.452,0.989c-0.146,0.315 -0.28,0.61 -0.405,0.882c-0.13,0.273 -0.3,0.488 -0.428,0.703c-0.544,0.849 -0.856,1.335 -0.856,1.335c-0,0 0.418,-0.403 1.149,-1.108c0.178,-0.183 0.405,-0.366 0.598,-0.606c0.192,-0.244 0.399,-0.508 0.62,-0.79c0.223,-0.287 0.46,-0.592 0.71,-0.914c0.209,-0.35 0.426,-0.718 0.655,-1.102c0.947,-1.537 1.712,-3.527 2.315,-5.718c0.379,-1.373 0.636,-2.826 0.84,-4.303c0.228,1.914 0.471,3.915 0.677,5.905c0.206,2.113 0.355,4.222 0.398,6.205c0.011,1.973 -0.032,3.835 -0.232,5.414c-0.068,0.798 -0.184,1.521 -0.302,2.161c-0.101,0.646 -0.207,1.208 -0.33,1.66c-0.221,0.92 -0.348,1.446 -0.348,1.446c-0,0 0.253,-0.48 0.697,-1.319c0.235,-0.418 0.479,-0.941 0.742,-1.554c0.28,-0.607 0.58,-1.302 0.851,-2.08c0.608,-1.543 1.131,-3.406 1.634,-5.429c0.472,-2.023 0.865,-4.207 1.201,-6.388c0.122,-0.831 0.237,-1.657 0.349,-2.476c0.027,0.372 0.057,0.745 0.091,1.115c0.351,3.166 0.959,6.227 1.576,8.46c0.267,1.122 0.611,2.032 0.794,2.672c0.201,0.636 0.315,0.999 0.315,0.999c-0,0 0.019,-0.382 0.052,-1.05c0.052,-0.667 0.043,-1.608 0.181,-2.738c0.192,-2.254 0.677,-5.212 1.384,-8.047c0.772,-2.833 1.739,-5.53 2.65,-7.442c0.397,-0.974 0.874,-1.724 1.134,-2.269c0.28,-0.535 0.44,-0.84 0.44,-0.84l-6.927,-2.31c0.113,-0.571 0.219,-1.072 0.312,-1.479" style="fill:#f5704d;"/><path d="M120.376,126.532c-0.364,-0.227 -0.758,-0.576 -1.19,-0.986c-0.218,-0.199 -0.45,-0.411 -0.693,-0.634c-0.216,-0.251 -0.442,-0.515 -0.68,-0.79c-0.961,-1.067 -1.831,-2.512 -2.601,-4.086c-0.754,-1.596 -1.315,-3.397 -1.753,-5.206c-0.807,-3.665 -0.964,-7.417 -0.823,-10.194c0.051,-1.387 0.173,-2.534 0.264,-3.326c0.102,-0.79 0.161,-1.241 0.161,-1.241l-8.625,-0c-0,-0 0.078,0.539 0.213,1.482c0.096,0.603 0.228,1.382 0.406,2.268l-4.119,-0c-0,-0 0.069,0.345 0.187,0.933l-6.649,0.886c-0,-0 0.122,0.355 0.336,0.977c0.228,0.623 0.485,1.493 0.919,2.556c0.801,2.111 2.055,4.923 3.688,7.483c1.676,2.606 3.626,4.542 4.665,6.285c0.135,0.217 0.265,0.426 0.388,0.624c0.101,0.208 0.199,0.405 0.29,0.59c0.189,0.374 0.347,0.709 0.428,0.999c0.198,0.583 0.31,0.917 0.31,0.917c-0,-0 0.021,-0.355 0.057,-0.976c0.033,-0.319 0.012,-0.699 -0.025,-1.141c-0.017,-0.224 -0.035,-0.462 -0.053,-0.713c-0.043,-0.247 -0.088,-0.506 -0.134,-0.776c-0.354,-2.201 -1.497,-4.944 -1.947,-7.473c-0.218,-1.198 -0.352,-2.395 -0.431,-3.536c0.587,1.586 1.293,3.247 2.074,4.834c1.425,2.817 2.958,5.457 4.093,7.449c1.12,1.999 1.866,3.332 1.866,3.332c-0,-0 -0.238,-1.513 -0.596,-3.781c-0.329,-1.994 -0.772,-4.577 -1.102,-7.176c0.046,0.088 0.087,0.178 0.134,0.266c1.038,1.866 2.199,3.652 3.498,5.158c1.319,1.488 2.667,2.75 3.987,3.594c0.321,0.215 0.63,0.42 0.924,0.615c0.313,0.162 0.612,0.314 0.891,0.457c0.551,0.292 1.034,0.527 1.464,0.655c0.827,0.294 1.3,0.462 1.3,0.462c-0,-0 -0.408,-0.287 -1.122,-0.787" style="fill:#f5704d;"/><rect x="86.075" y="140.427" width="2.777" height="35.267" style="fill:#fff;"/><path d="M73.921,97.555l-0,33.181c6.786,13.882 18.969,14.244 27.087,0l-0,-33.181c-0,-17.915 -27.087,-17.915 -27.087,0" style="fill:#ffcead;"/><path d="M124.894,82.062c-2.837,-1.218 -6.844,1.771 -8.95,6.675c-2.107,4.906 -1.516,9.869 1.321,11.087c2.837,1.218 6.844,-1.77 8.95,-6.674c2.108,-4.906 1.516,-9.869 -1.321,-11.088" style="fill:#ffcead;"/><path d="M51.26,82.062c2.836,-1.218 6.844,1.771 8.949,6.675c2.108,4.906 1.516,9.869 -1.32,11.087c-2.838,1.218 -6.844,-1.77 -8.951,-6.674c-2.108,-4.906 -1.516,-9.869 1.322,-11.088" style="fill:#ffcead;"/><path d="M113.748,109.568c0,0 -0.058,-0.237 -0.158,-0.652c-0.093,-0.416 -0.267,-1.031 -0.386,-1.758c-0.286,-1.466 -0.565,-3.434 -0.902,-5.323c-0.196,-0.924 -0.346,-1.869 -0.591,-2.655c-0.113,-0.391 -0.224,-0.77 -0.328,-1.129c-0.129,-0.328 -0.267,-0.61 -0.38,-0.875c-0.202,-0.572 -0.489,-0.818 -0.638,-1.021c-0.148,-0.191 -0.233,-0.301 -0.233,-0.301l8.232,-2.572c0,0 0.012,0.351 0.032,0.968c0.009,0.606 0.049,1.502 -0.139,2.35c-0.074,0.442 -0.148,0.924 -0.249,1.405c-0.129,0.45 -0.265,0.926 -0.406,1.417c-0.27,0.983 -0.664,1.913 -1.012,2.867c-0.745,1.86 -1.528,3.631 -2.043,4.983c-0.283,0.679 -0.444,1.246 -0.587,1.653c-0.135,0.409 -0.212,0.643 -0.212,0.643" style="fill:#f5704d;"/><path d="M87.465,120.507c-8.818,-0 -27.446,-13.862 -33.205,-33.718c-5.815,-20.049 5.136,-48.805 33.205,-48.805c28.067,-0 39.021,28.756 33.204,48.805c-5.761,19.856 -24.387,33.718 -33.204,33.718" style="fill:#ffcead;"/><path d="M80.858,62.845c-6.887,13.773 -9.682,17.84 -18.839,14.203c-9.156,-3.635 -8.417,6.555 -6.753,13.826c-8.109,-9.82 -6.156,-19.145 -3.634,-28.627c2.764,-10.389 16.706,-26.197 29.784,-25.906c7.105,-0.713 17.859,0.131 29.3,7.992c19.976,13.733 13.305,44.587 7.923,48.226c5.212,-28.577 -7.549,-22.76 -16.356,-37.708c-2.894,-6.572 -13.939,-6.979 -21.425,7.994" style="fill:#f5704d;"/><path d="M112.021,63.516c-0.043,-0.104 -0.077,-0.2 -0.118,-0.302c0.265,0.287 0.535,0.588 0.809,0.914l-0.33,0.203c-0.127,-0.276 -0.251,-0.55 -0.361,-0.815m11.465,9.393c-0.128,-1.141 -0.2,-2.266 -0.48,-3.379c-0.123,-0.556 -0.222,-1.11 -0.369,-1.651c-0.18,-0.538 -0.359,-1.069 -0.535,-1.592c-0.31,-1.074 -0.859,-2.007 -1.31,-2.958c-0.118,-0.233 -0.235,-0.464 -0.35,-0.694c-0.11,-0.196 -0.22,-0.39 -0.328,-0.582c-0.234,-0.396 -0.464,-0.786 -0.689,-1.167c-1.854,-3.048 -3.853,-5.576 -6.11,-7.206c-1.124,-0.815 -2.337,-1.352 -3.255,-1.619c-0.464,-0.132 -0.875,-0.189 -1.129,-0.236c-0.262,-0.039 -0.396,-0.06 -0.396,-0.06l-0.399,5.971l-2.063,0.121c0.003,-0.091 -0.005,-0.195 0.003,-0.28c0.128,-1.011 0.451,-1.741 0.773,-2.291c0.129,-0.268 0.316,-0.487 0.396,-0.63c0.091,-0.145 0.14,-0.222 0.14,-0.222l-2.328,-1.117l-0.898,-6.521c0,0 -0.649,0.158 -1.784,0.436c-1.141,0.285 -2.829,0.684 -4.922,1.363c-2.077,0.713 -4.665,1.715 -7.016,3.62c-2.365,1.812 -4.219,4.602 -5.257,7.115c-1.207,2.533 -1.964,5.201 -2.636,7.569c-0.666,2.384 -1.289,4.559 -2.002,6.36c-0.711,1.798 -1.508,3.218 -2.182,4.138c-0.31,0.485 -0.621,0.809 -0.811,1.054c-0.197,0.239 -0.301,0.367 -0.301,0.367c0,0 0.127,-0.104 0.369,-0.298c0.234,-0.2 0.616,-0.463 1.022,-0.879c0.868,-0.784 1.984,-2.062 3.097,-3.757c1.113,-1.692 2.211,-3.786 3.347,-5.982c1.148,-2.199 2.325,-4.443 3.833,-6.417l1.111,-1.45c0.392,-0.408 0.744,-0.846 1.163,-1.187c0.788,-0.741 1.648,-1.301 2.527,-1.733c1.583,-0.81 3.307,-1.145 4.909,-1.363c-0.01,0.791 0.044,1.651 0.208,2.555c0.438,2.307 1.625,4.616 3.089,6.451c1.437,1.879 3.156,3.478 4.649,5.013c1.492,1.495 2.779,3.112 3.79,4.784c0.917,1.702 1.588,3.461 1.945,5.06c0.383,1.589 0.606,2.969 0.731,3.932c0.133,0.968 0.21,1.521 0.21,1.521c0,0 0.058,-0.556 0.161,-1.529c0.109,-0.974 0.226,-2.371 0.236,-4.084c0.034,-1.714 -0.192,-3.756 -0.76,-5.939c-0.153,-0.504 -0.331,-1.011 -0.522,-1.518c0.438,0.462 0.865,0.924 1.258,1.388c0.416,0.548 0.865,1.078 1.179,1.626c0.167,0.272 0.354,0.534 0.494,0.801c0.133,0.272 0.261,0.536 0.385,0.789c0.28,0.507 0.403,1.011 0.563,1.456c0.171,0.446 0.25,0.85 0.305,1.187c0.127,0.683 0.201,1.073 0.201,1.073c0,0 0.061,-0.395 0.169,-1.085c0.063,-0.351 0.125,-0.78 0.114,-1.278c-0.001,-0.496 0.051,-1.078 -0.048,-1.692c-0.036,-0.314 -0.073,-0.641 -0.111,-0.978c-0.05,-0.338 -0.144,-0.673 -0.22,-1.03c-0.138,-0.726 -0.401,-1.433 -0.648,-2.197c-0.053,-0.143 -0.114,-0.287 -0.17,-0.43c0.481,0.314 0.926,0.626 1.297,0.929c0.119,0.09 0.206,0.175 0.306,0.263c0.066,0.287 0.132,0.576 0.204,0.866c0.352,1.827 0.573,3.809 0.654,5.919c0.058,1.047 0.082,2.118 0.112,3.193c0,1.066 -0.013,2.048 -0.088,3.115c-0.278,4.223 -1.068,8.555 -1.696,12.657c-0.647,4.099 -1.115,8.004 -1.104,11.367c0.001,3.361 0.4,6.152 0.983,8.011c0.206,0.949 0.561,1.639 0.717,2.13c0.182,0.482 0.279,0.74 0.279,0.74c0,0 -0.065,-0.268 -0.187,-0.771c-0.096,-0.508 -0.36,-1.218 -0.446,-2.177c-0.347,-1.88 -0.396,-4.627 0,-7.849c0.386,-3.23 1.295,-6.922 2.425,-10.873c1.11,-3.956 2.442,-8.179 3.306,-12.686c0.219,-1.111 0.388,-2.324 0.522,-3.443c0.106,-1.114 0.217,-2.224 0.294,-3.342c0.185,-2.218 0.228,-4.504 0.074,-6.768" style="fill:#f5704d;fill-rule:nonzero;"/><path d="M93.41,41.288c2.975,1.296 4.921,2.924 6.008,4.146c0.264,0.311 0.501,0.587 0.707,0.828c0.167,0.26 0.308,0.482 0.424,0.662c0.235,0.35 0.361,0.536 0.361,0.536l7.176,-4.784c0,-0 -0.252,-0.306 -0.724,-0.881c-0.239,-0.282 -0.533,-0.631 -0.88,-1.041c-0.374,-0.376 -0.823,-0.785 -1.319,-1.247c-2.008,-1.806 -5.245,-3.834 -9.299,-5.07c-4.055,-1.21 -8.857,-1.76 -13.889,-1.285c-2.513,0.253 -5.089,0.74 -7.63,1.577c-2.542,0.86 -4.849,1.958 -7.182,3.213c-4.579,2.594 -8.578,6.171 -11.425,10.073c-2.865,3.903 -4.775,7.937 -6.157,11.432c-1.373,3.508 -2.271,6.493 -2.898,8.58c-0.595,2.094 -0.935,3.291 -0.935,3.291c0,-0 0.467,-1.152 1.285,-3.168c0.846,-2.001 2.06,-4.863 3.773,-8.141c1.717,-3.266 3.993,-6.939 7.036,-10.256c3.033,-3.322 6.947,-6.093 11.249,-7.953l1.642,-0.638c0.54,-0.223 1.089,-0.425 1.659,-0.581c1.124,-0.339 2.247,-0.714 3.321,-0.921c2.175,-0.462 4.392,-0.635 6.527,-0.618c4.286,0.06 8.196,0.989 11.17,2.246" style="fill:#f5704d;fill-rule:nonzero;"/><path d="M56.623,97.443c0,0.621 -0.504,1.125 -1.125,1.125c-0.621,0 -1.125,-0.504 -1.125,-1.125c0,-0.621 0.504,-1.125 1.125,-1.125c0.621,0 1.125,0.504 1.125,1.125" style="fill:#de5d5d;"/><path d="M121.54,97.443c0,0.621 -0.504,1.125 -1.125,1.125c-0.621,0 -1.125,-0.504 -1.125,-1.125c0,-0.621 0.504,-1.125 1.125,-1.125c0.621,0 1.125,0.504 1.125,1.125" style="fill:#de5d5d;"/><path d="M87.546,141.645c-2.75,-2.257 -6.627,-4.646 -9.673,-1.611c-1.183,1.179 -0.847,3.056 -0.003,4.273c1.128,1.627 3.447,1.768 5.222,1.671c3.29,-0.18 6.014,-2.986 9.162,-3.825c1.197,-0.32 1.739,0.02 1.787,1.29c0.052,1.368 -2.952,-0.137 -3.311,-0.304c-1.238,-0.575 -2.425,-1.56 -3.857,-1.513c-0.805,0.027 -1.333,0.887 -0.921,1.605c1.291,2.252 5.475,3.745 7.935,3.712c3.229,-0.043 3.699,-4.211 2.311,-6.379c-1.719,-2.686 -5.721,-1.023 -7.889,-0.027c-1.59,0.73 -3.013,1.873 -4.684,2.413c-1.555,0.669 -2.051,0.145 -1.489,-1.574c0.562,0.152 1.12,0.322 1.671,0.511c1.104,0.358 2.159,0.686 3.316,0.779c0.501,0.04 0.819,-0.696 0.423,-1.021" style="fill:#fff;fill-rule:nonzero;"/><path d="M86.437,143.66c-3.354,2.298 -5.271,5.723 -5.481,9.783c-0.048,0.917 1.308,1.048 1.557,0.211c1.033,-3.476 2.797,-6.166 4.769,-9.15c0.335,-0.507 -0.336,-1.193 -0.845,-0.844" style="fill:#fff;fill-rule:nonzero;"/><path d="M87.617,145.574c2.39,2.783 4.246,5.655 5.298,9.189c0.229,0.772 1.499,0.655 1.442,-0.195c-0.279,-4.225 -2.935,-7.103 -5.978,-9.757c-0.527,-0.458 -1.215,0.235 -0.762,0.763" style="fill:#fff;fill-rule:nonzero;"/></g></g></g></svg>