<?xml version="1.0" encoding="UTF-8" standalone="no"?><!DOCTYPE svg PUBLIC "-//W3C//DTD SVG 1.1//EN" "http://www.w3.org/Graphics/SVG/1.1/DTD/svg11.dtd"><svg width="100%" height="100%" viewBox="0 0 178 178" version="1.1" xmlns="http://www.w3.org/2000/svg" xmlns:xlink="http://www.w3.org/1999/xlink" xml:space="preserve" xmlns:serif="http://www.serif.com/" style="fill-rule:evenodd;clip-rule:evenodd;stroke-linecap:round;stroke-linejoin:round;stroke-miterlimit:10;"><g><path d="M89.001,2c48.023,-0 86.956,38.952 86.956,87.001c-0,48.049 -38.933,86.999 -86.956,86.999c-48.025,-0 -86.957,-38.951 -86.957,-87c-0,-48.048 38.932,-87 86.957,-87" style="fill:#de7aac;fill-rule:nonzero;"/><g><clipPath id="_clip1"><path d="M2.043,88.999c0,48.048 38.933,87.001 86.956,87.001c48.026,0 86.957,-38.953 86.957,-87c0,-48.049 -38.931,-87 -86.957,-87c-48.023,0 -86.956,38.95 -86.956,86.999Z" clip-rule="nonzero"/></clipPath><g clip-path="url(#_clip1)"><path d="M54.291,67.16c2.406,-0.793 5.469,1.938 6.838,6.101c1.371,4.161 0.531,8.179 -1.877,8.971c-2.404,0.793 -5.469,-1.937 -6.838,-6.101c-1.371,-4.161 -0.531,-8.178 1.877,-8.971" style="fill:#ffdec4;"/><path d="M124.656,67.16c-2.408,-0.793 -5.471,1.938 -6.84,6.101c-1.371,4.161 -0.531,8.179 1.875,8.971c2.408,0.793 5.471,-1.939 6.842,-6.101c1.371,-4.161 0.529,-8.178 -1.877,-8.971" style="fill:#ffdec4;"/><path d="M76.438,117.482c-28.145,12.338 -36.586,18.914 -39.924,21.869c-5.142,4.551 -8.162,22.106 -11.195,36.508l127.346,0c-3.034,-14.402 -5.704,-31.957 -10.846,-36.508c-3.336,-2.955 -11.471,-9.363 -39.613,-21.701l-25.768,-0.168Z" style="fill:#fff;"/><path d="M80.671,117.531l-4.183,-0.027c-28.143,12.34 -36.585,18.916 -39.922,21.869c-5.143,4.551 -8.163,22.105 -11.196,36.508l48.215,0c-1.053,-16.041 -2.668,-31.44 -2.668,-47.643c0,-5.141 8.071,-5.148 9.754,-10.707" style="fill:#f0f0f0;"/><path d="M71.453,119.746l-15.285,16.242l5.375,9l-4,4l11.625,26.307l4.418,0.586l-2.133,-56.135Z" style="fill:#a8a8a8;"/><path d="M97.813,117.502l4.182,-0.027c28.144,12.34 36.586,18.916 39.923,21.869c5.143,4.551 8.163,22.105 11.196,36.508l-48.215,-0c1.053,-16.041 2.668,-31.44 2.668,-47.643c0,-5.141 -8.072,-5.148 -9.754,-10.707" style="fill:#f0f0f0;"/><path d="M106.971,119.746l15.285,16.242l-5.375,9l4,4l-11.625,26.307l-4.418,0.586l2.133,-56.135Z" style="fill:#a8a8a8;"/><path d="M75.869,92.822l-0,33.366c7.514,8.885 19.812,9.203 27.328,0l-0,-33.366c-0,-16.844 -27.328,-16.844 -27.328,0" style="fill:#ffdec4;"/><path d="M89.533,36.815c-45.863,0 -29.369,59.754 -26.373,64.166c3.303,4.864 18.963,13.421 26.373,13.421c7.41,0 23.07,-9.641 26.375,-14.506c2.994,-4.411 19.488,-63.081 -26.375,-63.081" style="fill:#ffdec4;"/><path d="M64.707,70.944c1.735,-1.735 2.98,-9.188 2.945,-8.763c5.889,1.263 8.301,-5.849 10.596,-7.737c9.058,-7.45 37.527,-7.975 42.988,16.849c5.971,-18.474 -6.418,-41.349 -31.654,-41.349c-12.785,0 -30.125,2.875 -28.713,15.4c-8.537,7.35 -5.656,15.742 -2.816,22.597c1.363,3.158 4.834,3.913 6.654,3.003" style="fill:#eba946;"/><path d="M83.059,135.822l3.41,6.164l5.288,0l3.412,-6.164l-5.982,-7.607l-6.128,7.607Z" style="fill:#e75e51;stroke:#e75e51;stroke-width:1.12px;"/><path d="M86.469,141.986l-4.855,39.602l15,0l-4.857,-39.602l-5.288,0Z" style="fill:#e75e51;stroke:#e75e51;stroke-width:1.12px;"/><path d="M89.187,128.215l-6.128,7.607l-10.594,10.594l-1.012,-26.67l4.435,-2.043l13.299,10.512Z" style="fill:#fff;fill-rule:nonzero;"/><path d="M89.187,128.215l6.128,7.607l10.593,10.594l1.027,-26.744l-3.766,-1.828l-13.982,10.371Z" style="fill:#fff;fill-rule:nonzero;"/><path d="M92.264,92.241c1.267,0.279 2.485,-0.113 3.769,0.147c1.291,0.263 2.483,1.232 3.596,1.888c1.781,1.048 3.931,1.456 5.414,-0.236c0.255,-0.291 0.112,-0.862 -0.342,-0.827c-2.93,0.217 -4.462,-1.251 -7.022,-2.274c-1.809,-0.723 -4.152,-0.878 -5.588,0.649c-0.191,0.204 -0.125,0.587 0.173,0.653" style="fill:#eba946;fill-rule:nonzero;"/><path d="M86.975,91.588c-1.436,-1.526 -3.779,-1.372 -5.588,-0.648c-2.559,1.022 -4.092,2.491 -7.021,2.273c-0.454,-0.034 -0.597,0.536 -0.343,0.827c1.379,1.573 3.117,1.271 4.877,0.524c1.132,-0.481 2.139,-1.289 3.234,-1.852c1.547,-0.796 3.083,-0.121 4.668,-0.471c0.298,-0.066 0.364,-0.449 0.173,-0.653" style="fill:#eba946;fill-rule:nonzero;"/></g></g></g></svg>