<?xml version="1.0" encoding="UTF-8" standalone="no"?><!DOCTYPE svg PUBLIC "-//W3C//DTD SVG 1.1//EN" "http://www.w3.org/Graphics/SVG/1.1/DTD/svg11.dtd"><svg width="100%" height="100%" viewBox="0 0 176 176" version="1.1" xmlns="http://www.w3.org/2000/svg" xmlns:xlink="http://www.w3.org/1999/xlink" xml:space="preserve" xmlns:serif="http://www.serif.com/" style="fill-rule:evenodd;clip-rule:evenodd;stroke-linecap:round;stroke-linejoin:round;stroke-miterlimit:10;"><g><path d="M87.992,174.995c-48.024,-0 -86.956,-38.951 -86.956,-87c0,-48.048 38.932,-87 86.956,-87c48.025,-0 86.957,38.952 86.957,87c0,48.049 -38.932,87 -86.957,87" style="fill:#fad37c;fill-rule:nonzero;"/><g><clipPath id="_clip1"><path d="M1.037,87.995c-0,48.048 38.931,87 86.956,87c48.025,0 86.957,-38.952 86.957,-87c-0,-48.049 -38.932,-87 -86.957,-87c-48.025,0 -86.956,38.951 -86.956,87Z" clip-rule="nonzero"/></clipPath><g clip-path="url(#_clip1)"><path d="M124.683,141.346c6.907,-78.84 0.602,-111.808 -34.362,-110.854c-45.547,1.243 -45.285,40.41 -33.086,109.454c20.279,-2.08 52.58,1.123 67.448,1.4" style="fill:#92653d;"/><path d="M101.086,122.624c-0.265,0.416 -26.249,0.83 -26.537,1.24c-8.161,11.643 -25.796,16.744 -39.817,19.879c-13.954,3.121 -14.494,20.846 -14.514,32.651l136.029,-0c-0.02,-11.805 -0.28,-29.467 -14.516,-32.651c-14.236,-3.183 -32.902,-8.945 -40.645,-21.119Z" style="fill:#179e85;stroke:#179e85;stroke-width:1.12px;"/><path d="M74.603,97.76l-0,33.389c-4.732,8.926 8.563,37.258 13.713,37.195c4.777,-0.058 17.946,-26.025 13.546,-37.195l-0,-33.389c-0,-18.029 -27.259,-18.029 -27.259,-0" style="fill:#ffdec4;"/><path d="M124.32,82.549c-2.736,-1.174 -6.602,1.707 -8.63,6.43c-2.031,4.728 -1.462,9.509 1.274,10.685c2.735,1.172 6.597,-1.707 8.629,-6.435c2.031,-4.723 1.463,-9.504 -1.273,-10.68" style="fill:#ffdec4;"/><path d="M52.116,82.549c2.736,-1.174 6.599,1.705 8.631,6.43c2.03,4.728 1.46,9.509 -1.276,10.685c-2.734,1.172 -6.597,-1.705 -8.628,-6.435c-2.032,-4.723 -1.461,-9.504 1.273,-10.68" style="fill:#ffdec4;"/><path d="M53.869,86.539c-6.907,-37.859 15.476,-49.871 34.362,-49.871c21.274,0 43.263,16.314 33.086,51.119c-20.279,-0.998 -38.817,-13.01 -56.735,-36.762c-3.051,12.067 -5.11,27.748 -10.713,35.514" style="fill:#92653d;"/><path d="M88.232,120.856c-8.872,0 -27.617,-13.952 -33.412,-33.93c-5.854,-20.178 5.166,-49.115 33.412,-49.115c28.244,0 39.268,28.937 33.414,49.115c-5.795,19.978 -24.54,33.93 -33.414,33.93" style="fill:#ffdec4;"/><path d="M63.553,52.386c0.014,-0.001 0.026,-0.003 0.04,-0.004c0.105,-0.011 0.222,-0.017 0.328,-0.026c-0.087,0.053 -0.172,0.108 -0.258,0.162l-0.11,-0.132Zm59.715,37.216c0.186,-0.554 0.339,-1.141 0.517,-1.742c0.4,-1.199 0.574,-2.507 0.851,-3.864c0.375,-2.724 0.486,-5.684 0.328,-8.626c-0.377,-5.875 -1.624,-11.576 -2.523,-15.723c-0.881,-4.109 -1.468,-6.848 -1.468,-6.848l-2.878,0.88c0.014,-0.436 0.066,-0.778 0.142,-0.929c0.023,-0.017 0.037,-0.049 0.052,-0.062c-0.037,-0.01 -0.091,-0.025 -0.158,-0.044c-0.004,-0.001 -0.01,-0.002 -0.014,-0.003l-0.293,-0.076l-0.073,-0.022l-0.036,-0.011l-0.017,-0.006c-0.405,-0.11 0.118,0.032 0.433,0.118c0.065,0.015 0.146,0.031 0.174,0.035c-0.006,-0.004 -0.011,0.004 -0.016,0.009c0.04,0.011 0.066,0.018 0.043,0.012l0.004,0.024l0.002,0.047c0.001,0.028 -0.01,0.066 -0.011,0.081l0.029,-0c0.017,-0 0.036,0.003 0.051,0.006c0.131,0.035 0.155,0.101 0.157,0.095l-2.138,-2.791c0.071,-0.073 0.117,-0.119 0.117,-0.119l-0.45,-0.317l-2.527,-3.301c0.024,0.025 -0.34,0.171 -0.854,0.604c0.661,-1 1.149,-2.11 1.366,-3.039c0.132,-0.517 0.16,-0.99 0.198,-1.289c0.026,-0.308 0.04,-0.472 0.04,-0.472l-6.513,0.502c0.213,-0.608 0.33,-0.941 0.33,-0.941l-4.045,-1.23c0.017,-0.123 0.032,-0.244 0.037,-0.348c-0.009,-0.531 -0.013,-0.813 -0.013,-0.813l-2.798,0.317l-5.398,-1.641l-4.177,-3.238c-0.006,0.002 0.078,0.037 0.144,0.198c0.026,0.036 -0.025,0.103 0.122,0.085c0.031,0.033 -0.056,0.133 -0.298,0.268c-0.26,0.144 -0.622,0.306 -1.227,0.581c-0.384,0.176 -0.767,0.343 -1.107,0.564l-0.256,0.162l-0.145,0.105l-0.296,0.213c-0.127,0.091 -0.258,0.188 -0.387,0.281c-0.473,0.025 -0.951,0.027 -1.431,0.009l-2.925,-4.04c-0,-0 -0.347,0.314 -0.953,0.863c-0.306,0.278 -0.677,0.615 -1.104,1.003c-0.426,0.393 -0.905,0.846 -1.488,1.249c-1.375,1.123 -3.209,2.344 -5.289,3.576l-3.581,-1.536c0.004,0.007 0.009,0.009 0.012,0.018c0.032,0.123 -0.321,0.53 -1.229,1.357c-0.869,0.871 -1.728,1.938 -2.436,3.049c-0.439,0.69 -0.875,1.374 -1.318,2.039c-1.995,1.31 -3.775,2.687 -5.075,4.087c-0.147,0.154 -0.266,0.309 -0.398,0.463l-2.663,-3.174c-0,-0 -0.176,0.184 -0.507,0.531c-0.339,0.344 -0.81,0.858 -1.316,1.551c-1.041,1.368 -2.216,3.424 -3.084,5.903c-0.889,2.478 -1.473,5.365 -1.761,8.418c-0.15,1.527 -0.201,3.1 -0.184,4.691c0.021,1.572 0.116,3.27 0.419,4.903c0.212,1.299 0.536,2.576 0.952,3.807l-1.185,-0c-0,-0 0.03,0.362 0.079,0.981l-0.115,-0.072c-0,-0 -0.14,0.311 -0.387,0.853c-0.135,0.267 -0.244,0.604 -0.362,0.989c-0.136,0.383 -0.249,0.816 -0.337,1.289c-0.424,1.897 -0.431,4.328 -0.465,6.666c-0.031,2.334 -0.253,4.643 -0.954,6.24c-0.084,0.199 -0.156,0.396 -0.241,0.574c-0.098,0.172 -0.191,0.335 -0.278,0.488c-0.168,0.314 -0.334,0.577 -0.504,0.77c-0.317,0.406 -0.499,0.638 -0.499,0.638c-0,-0 0.216,-0.203 0.593,-0.558c0.202,-0.169 0.409,-0.408 0.629,-0.7c0.114,-0.144 0.235,-0.297 0.363,-0.458c0.115,-0.17 0.22,-0.359 0.339,-0.552c0.493,-0.768 0.879,-1.766 1.219,-2.851c0.325,-1.092 0.554,-2.276 0.764,-3.452c0.227,-1.367 0.451,-2.709 0.716,-3.893c0.068,0.29 0.14,0.584 0.225,0.894c0.365,1.503 0.953,3.211 1.676,4.991c0.755,1.772 1.716,3.588 2.827,5.302c1.155,1.691 2.46,3.268 3.842,4.583c1.42,1.271 2.828,2.365 4.176,3.064c0.332,0.181 0.639,0.373 0.949,0.52c0.316,0.137 0.616,0.267 0.897,0.389c0.28,0.122 0.542,0.235 0.784,0.34c0.248,0.091 0.483,0.155 0.691,0.223l1.311,0.408c-0,-0 -0.46,-0.19 -1.267,-0.523c-0.199,-0.086 -0.425,-0.169 -0.661,-0.281c-0.229,-0.125 -0.477,-0.261 -0.743,-0.406c-0.265,-0.144 -0.546,-0.298 -0.842,-0.459c-0.291,-0.171 -0.575,-0.388 -0.882,-0.593c-1.248,-0.795 -2.514,-1.981 -3.76,-3.316c-1.21,-1.381 -2.316,-2.995 -3.263,-4.691c-0.478,-0.907 -0.908,-1.834 -1.294,-2.76c0.469,0.567 0.958,1.104 1.459,1.592c0.591,0.486 1.111,1.004 1.706,1.373c0.286,0.195 0.563,0.385 0.833,0.569c0.285,0.155 0.563,0.304 0.827,0.448c0.518,0.309 1.038,0.495 1.487,0.679c0.445,0.198 0.847,0.325 1.186,0.408c0.666,0.187 1.047,0.294 1.047,0.294c-0,-0 -0.365,-0.149 -1.005,-0.41c-0.323,-0.119 -0.704,-0.289 -1.116,-0.533c-0.419,-0.23 -0.901,-0.466 -1.367,-0.823c-0.239,-0.166 -0.488,-0.34 -0.745,-0.519c-0.237,-0.205 -0.481,-0.417 -0.733,-0.635c-0.521,-0.41 -0.962,-0.965 -1.461,-1.478c-0.911,-1.118 -1.741,-2.406 -2.397,-3.782c-0.628,-1.391 -1.116,-2.834 -1.444,-4.219c-0.289,-1.326 -0.489,-2.573 -0.568,-3.67c0.24,0.425 0.488,0.841 0.752,1.239c1.687,2.585 3.99,4.459 6.148,5.494c2.178,1.049 4.156,1.296 5.494,1.375c0.674,0.031 1.206,-0.022 1.562,-0.022c0.356,-0.011 0.547,-0.017 0.547,-0.017c-0,-0 -0.19,-0.028 -0.544,-0.08c-0.352,-0.063 -0.873,-0.103 -1.516,-0.248c-1.278,-0.305 -3.091,-0.887 -4.856,-2.167c-1.756,-1.274 -3.418,-3.222 -4.45,-5.663c-1.046,-2.429 -1.593,-5.24 -1.544,-8.032c0.011,-1.681 0.246,-3.427 0.575,-5.123c0.193,0.947 0.513,1.847 0.95,2.653c1.132,2.147 2.822,3.651 4.461,4.751c1.65,1.11 3.309,1.832 4.807,2.326c1.49,0.526 2.841,0.785 3.946,0.976c1.113,0.156 1.988,0.248 2.588,0.247c0.598,0.017 0.916,0.026 0.916,0.026c-0,-0 -0.316,-0.043 -0.907,-0.123c-0.592,-0.061 -1.45,-0.245 -2.521,-0.512c-1.062,-0.303 -2.348,-0.695 -3.727,-1.354c-1.388,-0.625 -2.893,-1.485 -4.297,-2.667c-1.402,-1.167 -2.731,-2.679 -3.451,-4.513c-0.739,-1.821 -0.75,-3.925 -0.036,-5.9c0.701,-1.976 2.043,-3.891 3.702,-5.295c1.265,-1.067 2.708,-1.844 4.278,-2.288c-1.818,1.067 -3.374,2.34 -4.426,3.787c-1.553,2.109 -2.041,4.268 -2.305,5.716c-0.14,0.731 -0.176,1.317 -0.236,1.71c-0.048,0.395 -0.074,0.606 -0.074,0.606c-0,-0 0.037,-0.209 0.106,-0.601c0.08,-0.39 0.148,-0.971 0.325,-1.69c0.335,-1.426 0.942,-3.526 2.536,-5.463c1.58,-1.945 4.153,-3.499 7.1,-4.574c0.022,-0.009 0.044,-0.015 0.066,-0.023c4.301,-0.511 8.711,-0.309 13.032,-0.24c1.219,0.011 2.417,0.022 3.591,0.032c1.194,-0.028 2.367,-0.052 3.517,-0.101c1.184,-0.103 2.254,-0.158 3.446,-0.3c1.292,-0.191 2.395,-0.467 3.446,-0.789c0.825,-0.254 1.601,-0.536 2.351,-0.832c-0.333,0.422 -0.678,0.843 -1.041,1.251c-1.233,1.369 -2.76,2.43 -4.051,3.063c-0.64,0.319 -1.226,0.464 -1.622,0.625c-0.405,0.143 -0.636,0.225 -0.636,0.225c-0,-0 0.243,-0.014 0.668,-0.039c0.424,-0.043 1.057,-0.021 1.793,-0.154c1.473,-0.252 3.462,-0.909 5.232,-2.008c0.45,-0.282 0.889,-0.577 1.314,-0.874c-0.538,1.074 -1.041,2.081 -1.475,2.945c-0.919,1.828 -1.531,3.047 -1.531,3.047c-0,-0 1.036,-0.885 2.591,-2.214c0.783,-0.671 1.697,-1.455 2.675,-2.294c0.797,-0.676 1.567,-1.449 2.357,-2.219c0.02,0.147 0.042,0.299 0.064,0.458c0.077,0.7 0.264,1.587 0.467,2.513c0.222,0.909 0.478,1.866 0.795,2.81c0.622,1.894 1.538,3.663 2.357,4.862c0.39,0.613 0.768,1.081 1.034,1.406c0.26,0.325 0.409,0.511 0.409,0.511c-0,-0 -0.091,-0.22 -0.251,-0.606c-0.162,-0.381 -0.39,-0.925 -0.588,-1.603c-0.293,-0.897 -0.539,-2.016 -0.694,-3.202c0.417,0.848 0.861,1.676 1.316,2.48c2.033,3.523 4.187,6.712 5.41,9.346c0.627,1.305 1.031,2.448 1.253,3.271c0.123,0.411 0.185,0.741 0.233,0.967c0.046,0.226 0.072,0.347 0.072,0.347c-0,-0 0.009,-0.123 0.024,-0.353c0.015,-0.231 0.046,-0.573 0.038,-1.009c0.01,-0.873 -0.072,-2.134 -0.334,-3.626c-0.156,-0.961 -0.398,-2.02 -0.68,-3.127c0.076,0.175 0.152,0.347 0.231,0.533c0.551,1.277 1.145,2.815 1.684,4.485c0.242,3.105 -0.172,6.138 -0.721,8.479c-0.347,1.5 -0.704,2.741 -0.981,3.598c-0.273,0.862 -0.428,1.354 -0.428,1.354c-0,-0 0.198,-0.477 0.544,-1.312c0.352,-0.833 0.817,-2.04 1.298,-3.521c0.236,-0.742 0.495,-1.548 0.687,-2.424c0.24,-0.866 0.392,-1.801 0.548,-2.774c0.073,0.315 0.147,0.631 0.212,0.95c0.318,1.658 0.523,3.34 0.58,4.93c0.012,1.585 -0.047,3.082 -0.283,4.341c-0.082,0.637 -0.217,1.209 -0.347,1.715c-0.113,0.511 -0.233,0.951 -0.364,1.303c-0.239,0.716 -0.375,1.125 -0.375,1.125c-0,-0 0.178,-0.393 0.49,-1.081c0.169,-0.341 0.335,-0.769 0.503,-1.271c0.185,-0.496 0.382,-1.061 0.532,-1.697c0.373,-1.256 0.595,-2.774 0.753,-4.413c0.018,-0.251 0.01,-0.519 0.021,-0.775c0.034,0.395 0.074,0.792 0.096,1.182c-0.018,1.257 0.063,2.505 -0.093,3.662c-0.058,0.582 -0.092,1.157 -0.165,1.706c-0.103,0.545 -0.203,1.072 -0.298,1.577c-0.153,1.031 -0.47,1.925 -0.703,2.742c-0.124,0.405 -0.225,0.794 -0.348,1.141c-0.141,0.34 -0.269,0.653 -0.385,0.935c-0.469,1.14 -0.736,1.792 -0.736,1.792c-0,-0 0.388,-0.591 1.066,-1.623c0.171,-0.261 0.361,-0.55 0.567,-0.864c0.19,-0.323 0.365,-0.689 0.57,-1.073c0.394,-0.775 0.897,-1.636 1.257,-2.655c0.2,-0.505 0.409,-1.032 0.625,-1.577" style="fill:#92653d;"/><path d="M71.422,38.377l0.096,0.041c-0.04,-0.073 -0.115,-0.034 -0.096,-0.041" style="fill:#92653d;"/><path d="M129.609,127.12c-0.702,-0.013 -1.445,-0.372 -1.988,-1.024c-0.561,-0.635 -0.962,-1.502 -1.264,-2.396c-0.602,-1.802 -0.824,-3.749 -0.928,-5.187c-0.099,-1.45 -0.063,-2.388 -0.063,-2.388l-2.867,0.205c-0,-0 0.152,1.061 0.536,2.574c0.391,1.512 0.988,3.519 2.01,5.383c0.512,0.922 1.136,1.825 1.954,2.473c0.793,0.67 1.839,0.95 2.632,0.808c1.597,-0.299 2.276,-1.15 2.301,-1.091c0.003,-0.058 -0.888,0.647 -2.323,0.643" style="fill:#92653d;"/><path d="M51.795,102.106c0,-0 0.052,0.13 0.143,0.357c0.084,0.24 0.198,0.603 0.294,1.068c0.204,0.925 0.305,2.244 0.114,3.519c-0.117,0.624 -0.297,1.243 -0.598,1.75c-0.316,0.476 -0.704,0.911 -1.161,1.095c-0.899,0.423 -1.669,0.292 -1.655,0.333c0,-0 0.174,0.035 0.477,0.096c0.155,0.032 0.343,0.081 0.566,0.063c0.22,-0.013 0.486,0.024 0.756,-0.067c0.575,-0.079 1.177,-0.451 1.724,-0.946c0.527,-0.52 0.933,-1.193 1.263,-1.893c0.609,-1.416 0.883,-2.934 0.934,-4.1c0.074,-1.16 -0.084,-2.032 -0.084,-2.032l-2.773,0.757Z" style="fill:#92653d;"/><path d="M103.225,128.476c-0,3.422 -6.717,6.195 -15,6.195c-8.283,0 -15,-2.773 -15,-6.195c-0,-0.555 0.177,-1.092 0.508,-1.604c1.711,-2.644 7.552,-4.591 14.492,-4.591c7.163,0 13.154,2.074 14.644,4.847c0.233,0.434 0.356,0.885 0.356,1.348Z" style="fill:none;fill-rule:nonzero;stroke:#dea146;stroke-width:1px;stroke-linecap:butt;stroke-linejoin:miter;"/><path d="M74.603,122.162l-0,5.672c9.39,2.615 17.923,-1.644 27.259,-0.317l-0,-8.398c-8.731,-3.798 -18.896,-0.267 -27.259,3.043" style="fill:#ffdec4;"/><path d="M89.285,135.758c0,0.585 -0.476,1.061 -1.061,1.061c-0.585,-0 -1.06,-0.476 -1.06,-1.061c0,-0.586 0.475,-1.061 1.06,-1.061c0.585,-0 1.061,0.475 1.061,1.061" style="fill:#dea146;"/><path d="M89.204,150.521c0,0.304 -0.437,0.551 -0.979,0.551c-0.543,0 -0.98,-0.247 -0.98,-0.551l0.501,-13.501c0,-0.264 0.214,-0.477 0.479,-0.477c0.264,0 0.478,0.213 0.478,0.477l0.501,13.501Z" style="fill:#dea146;"/><path d="M88.726,149.984c-0,0.193 -0.223,0.352 -0.501,0.352c-0.276,0 -0.501,-0.159 -0.501,-0.352l0.257,-8.629c-0,-0.17 0.109,-0.306 0.244,-0.306c0.135,0 0.244,0.136 0.244,0.306l0.257,8.629Z" style="fill:#ffdec4;"/><path d="M57.142,117.169c-1.735,-0 -3.143,-3.406 -3.143,-7.608c-0,-4.203 1.408,-7.61 3.143,-7.61c0.281,-0 0.554,0.09 0.813,0.258c1.342,0.867 2.331,3.831 2.331,7.352c-0,3.633 -1.053,6.672 -2.46,7.428c-0.22,0.119 -0.449,0.18 -0.684,0.18Z" style="fill:none;fill-rule:nonzero;stroke:#dea146;stroke-width:1px;stroke-linecap:butt;stroke-linejoin:miter;"/><path d="M57.143,101.894l-0,-5.417" style="fill:none;fill-rule:nonzero;stroke:#dea146;stroke-width:0.75px;stroke-linecap:butt;stroke-linejoin:miter;"/><path d="M118.642,117.169c-1.735,-0 -3.143,-3.406 -3.143,-7.608c-0,-4.203 1.408,-7.61 3.143,-7.61c0.281,-0 0.554,0.09 0.813,0.258c1.342,0.867 2.331,3.831 2.331,7.352c-0,3.633 -1.053,6.672 -2.46,7.428c-0.22,0.119 -0.449,0.18 -0.684,0.18Z" style="fill:none;fill-rule:nonzero;stroke:#dea146;stroke-width:1px;stroke-linecap:butt;stroke-linejoin:miter;"/><path d="M118.643,101.894l-0,-5.417" style="fill:none;fill-rule:nonzero;stroke:#dea146;stroke-width:0.75px;stroke-linecap:butt;stroke-linejoin:miter;"/></g></g></g></svg>