<?xml version="1.0" encoding="UTF-8" standalone="no"?><!DOCTYPE svg PUBLIC "-//W3C//DTD SVG 1.1//EN" "http://www.w3.org/Graphics/SVG/1.1/DTD/svg11.dtd"><svg width="100%" height="100%" viewBox="0 0 176 176" version="1.1" xmlns="http://www.w3.org/2000/svg" xmlns:xlink="http://www.w3.org/1999/xlink" xml:space="preserve" xmlns:serif="http://www.serif.com/" style="fill-rule:evenodd;clip-rule:evenodd;stroke-miterlimit:10;"><g><path d="M88,174.268c-48.023,-0 -86.956,-38.952 -86.956,-87.001c-0,-48.049 38.933,-86.999 86.956,-86.999c48.025,-0 86.957,38.951 86.957,87c-0,48.048 -38.932,87 -86.957,87" style="fill:#de5d5d;fill-rule:nonzero;"/><g><clipPath id="_clip1"><path d="M1.044,87.267c-0,48.048 38.933,87 86.955,87c48.027,0 86.958,-38.952 86.958,-87c-0,-48.048 -38.932,-86.999 -86.958,-86.999c-48.022,0 -86.955,38.95 -86.955,86.999Z" clip-rule="nonzero"/></clipPath><g clip-path="url(#_clip1)"><path d="M53.291,65.427c2.406,-0.792 5.469,1.939 6.838,6.101c1.371,4.162 0.531,8.18 -1.877,8.972c-2.404,0.792 -5.469,-1.938 -6.838,-6.101c-1.371,-4.162 -0.531,-8.179 1.877,-8.972" style="fill:#ffdec4;"/><path d="M123.656,65.428c-2.408,-0.793 -5.471,1.938 -6.84,6.1c-1.371,4.162 -0.531,8.18 1.875,8.972c2.408,0.792 5.471,-1.939 6.842,-6.101c1.371,-4.162 0.529,-8.179 -1.877,-8.971" style="fill:#ffdec4;"/><path d="M75.804,118.685c-28.145,12.338 -36.586,15.914 -39.924,18.868c-5.142,4.551 -8.162,22.107 -11.195,36.509l127.346,-0c-3.034,-14.402 -5.704,-31.958 -10.846,-36.509c-3.336,-2.954 -11.471,-6.362 -39.613,-18.7l-25.768,-0.168Z" style="fill:#474748;"/><path d="M106.164,128.33c-0,6.132 -7.894,20.619 -17.631,20.619c-9.737,-0 -17.63,-14.487 -17.63,-20.619c-0,-6.131 7.893,-11.103 17.63,-11.103c9.737,-0 17.631,4.972 17.631,11.103Z" style="fill:none;fill-rule:nonzero;stroke:#303030;stroke-width:1.59px;"/><path d="M91.501,148.949c0,1.64 -1.329,2.968 -2.969,2.968c-1.639,-0 -2.968,-1.328 -2.968,-2.968c0,-1.64 1.329,-2.968 2.968,-2.968c1.64,-0 2.969,1.328 2.969,2.968" style="fill:#fff;"/><path d="M88.57,148.84l0.01,-0.021c0.01,-0.02 0.008,-0.04 -0.007,-0.057c-0.005,-0.005 -0.01,-0.01 -0.015,-0.016c-0.182,-0.198 -0.106,0.33 0.012,0.094" style="fill:#474748;fill-rule:nonzero;"/><path d="M87.889,148.164c-0.348,-0.183 -0.796,-0.211 -1.183,-0.215c-0.134,-0.001 -0.208,0.115 -0.209,0.23c-0.089,0.145 -0.073,0.331 0.085,0.501c0.318,0.342 0.875,0.279 1.247,0.1c0.247,-0.12 0.339,-0.47 0.06,-0.616" style="fill:#474748;fill-rule:nonzero;"/><path d="M90.51,148.186c0.004,-0.117 -0.071,-0.239 -0.208,-0.237c-0.356,0.003 -0.809,0.018 -1.13,0.187c-0.316,0.166 -0.266,0.467 0.007,0.643c0.36,0.232 0.867,0.185 1.202,-0.064c0.206,-0.154 0.228,-0.365 0.129,-0.529" style="fill:#474748;fill-rule:nonzero;"/><path d="M88.681,148.727c-0.099,-0.064 -0.146,0.017 -0.125,0.024c-0.012,0.006 -0.209,-0.092 -0.246,0.016c-0.078,0.229 -0.084,0.454 -0.091,0.695c-0.003,0.086 0.072,0.153 0.154,0.155c0.125,0.004 0.25,0.007 0.375,0.009c0.101,0.001 0.194,-0.107 0.158,-0.207c-0.076,-0.211 -0.197,-0.674 -0.225,-0.692" style="fill:#474748;fill-rule:nonzero;"/><path d="M87,150.302c0.452,0.102 0.923,0.077 1.384,0.082c0.595,0.006 1.215,0.051 1.806,-0.023c0.091,-0.011 0.091,-0.129 0,-0.141c-0.517,-0.064 -1.055,-0.03 -1.576,-0.025c-0.534,0.005 -1.091,-0.033 -1.614,0.085c-0.011,0.002 -0.011,0.02 0,0.022" style="fill:#474748;fill-rule:nonzero;"/><path d="M74.869,91.091l-0,33.366c7.514,8.884 19.812,9.203 27.328,-0l-0,-33.366c-0,-16.845 -27.328,-16.845 -27.328,-0" style="fill:#ffdec4;"/><path d="M88.533,35.083c-45.863,0 -29.369,59.754 -26.373,64.166c3.303,4.864 18.963,13.421 26.373,13.421c7.41,0 23.07,-9.64 26.375,-14.505c2.994,-4.412 19.488,-63.082 -26.375,-63.082" style="fill:#ffdec4;"/><path d="M63.707,69.212c1.735,-1.735 2.98,-9.188 2.944,-8.763c5.889,1.263 8.303,-5.849 10.598,-7.737c9.057,-7.45 37.526,-7.975 42.988,16.849c5.97,-18.474 -6.418,-41.349 -31.655,-41.349c-12.785,0 -30.125,2.875 -28.712,15.4c-8.538,7.35 -5.657,15.742 -2.818,22.597c1.364,3.158 4.835,3.913 6.655,3.003" style="fill:#dea146;"/><path d="M67.132,54.616c0.012,-0.005 0.031,-0.007 0.036,-0.014c-0.07,-0.038 -0.145,-0.071 -0.223,-0.099c-0.156,-0.056 -0.325,-0.09 -0.489,-0.099l0,0.179c0.119,0.01 0.249,0.012 0.351,0.03c0.27,0.054 0.263,0.018 0.325,0.003" style="fill:#dea146;"/><path d="M65.706,59.905c-0.123,-0.031 -0.244,-0.067 -0.361,-0.108l-0.091,-0.045c-0.107,-0.055 -0.289,-0.14 -0.183,-0.109c0.013,-0.024 -0.008,0.054 0.032,-0.053l0.089,-0.244c0.056,-0.163 0.107,-0.328 0.153,-0.495l0.102,-0.424l-0.001,0.013c0.001,0.015 0.006,0.023 0.01,0.022c0.229,-0.139 0.46,-0.278 0.691,-0.417c0.081,0.162 0.166,0.329 0.28,0.515c0.008,0.014 0.021,0.03 0.029,0.044l0,1.416c-0.249,-0.014 -0.504,-0.053 -0.75,-0.115m53.231,1.813c0.156,-1.227 0.167,-2.578 -0.019,-4.007c-0.208,-1.432 -0.713,-2.937 -1.536,-4.324c-0.193,-0.354 -0.453,-0.651 -0.686,-0.98c-0.245,-0.309 -0.478,-0.672 -0.754,-0.921c-0.534,-0.526 -1.098,-1.133 -1.645,-1.539c-0.556,-0.435 -1.099,-0.919 -1.681,-1.299c-0.594,-0.37 -1.181,-0.736 -1.757,-1.096c-2.343,-1.278 -4.489,-2.123 -6.205,-2.841c-1.675,-0.696 -2.932,-1.272 -3.719,-1.696c-0.752,-0.425 -1.183,-0.668 -1.183,-0.668l-2.106,5.266c-0.172,-0.045 -0.343,-0.099 -0.517,-0.14c-0.559,-0.129 -1.121,-0.26 -1.714,-0.36c-0.53,-0.095 -1.059,-0.189 -1.584,-0.283c-1.042,-0.189 -2.067,-0.376 -3.059,-0.557c-2.03,-0.349 -3.977,-0.626 -5.781,-0.743c-1.83,-0.088 -3.43,-0.142 -5.326,0.48c-1.134,0.425 -1.625,0.8 -2.031,1.094c-0.194,0.149 -0.321,0.26 -0.405,0.336c-0.086,0.076 -0.131,0.115 -0.131,0.115l2.756,3.002c-0.3,-0.13 -0.49,-0.212 -0.49,-0.212l-0.293,0.684c-0.503,-0.067 -0.981,-0.141 -1.405,-0.228c-1.229,-0.247 -2.077,-0.584 -2.6,-0.85c-0.273,-0.12 -0.45,-0.246 -0.578,-0.32c-0.127,-0.075 -0.194,-0.115 -0.194,-0.115l-1.935,5.116l-1.549,0.309c0,0 0.038,0.108 0.107,0.309c0.04,0.118 0.101,0.275 0.178,0.449l-4.639,1.113l0,-2.228c-0.319,-0.025 -0.668,-0.028 -0.999,0.013l-3.126,0.386l0.467,2.095c0.128,0.571 0.241,1.148 0.433,1.675c0.235,0.502 0.433,1.039 0.732,1.468c0.57,0.895 1.241,1.634 1.955,2.241c1.43,1.219 2.975,2.014 4.528,2.639c1.557,0.616 3.145,1.03 4.736,1.312c1.59,0.272 3.201,0.416 4.774,0.299c-3.058,-0.698 -5.856,-2.162 -8.21,-3.942c-0.075,-0.058 -0.143,-0.121 -0.216,-0.179c1.987,0.805 4.203,1.25 6.367,1.502c3.081,0.355 6.097,0.326 8.343,0.21c2.246,-0.117 3.716,-0.341 3.716,-0.341c0,0 -1.475,-0.196 -3.625,-0.701c-2.146,-0.502 -4.982,-1.306 -7.605,-2.409c-1.142,-0.477 -2.226,-1.02 -3.181,-1.588c1.425,0.419 2.954,0.545 4.411,0.561c2.271,0.017 4.445,-0.249 6.064,-0.468c1.612,-0.237 2.686,-0.395 2.686,-0.395c0,0 -1.073,-0.147 -2.683,-0.369c-1.287,-0.19 -2.919,-0.463 -4.542,-0.871c2.317,-0.502 4.702,-1.174 7.004,-1.681c1.847,-0.398 3.664,-0.657 5.351,-0.593c1.68,0.067 3.231,0.485 4.457,1.161c1.236,0.658 2.154,1.48 2.755,2.09c0.587,0.625 0.908,1.013 0.908,1.013c0,0 -0.196,-0.453 -0.596,-1.241c-0.421,-0.772 -1.093,-1.873 -2.232,-2.988c-0.559,-0.569 -1.263,-1.09 -2.055,-1.592c-0.63,-0.371 -1.336,-0.695 -2.075,-0.985c0.285,0 0.574,-0.005 0.862,-0.022c0.247,-0.024 0.489,-0.058 0.726,-0.096c0.285,0.066 0.626,0.143 1.029,0.236c1.221,0.25 2.882,0.485 4.725,0.691c1.145,0.127 2.362,0.261 3.581,0.441c0.338,0.201 0.657,0.414 0.952,0.637c1.208,0.903 2.033,1.928 2.566,2.677c0.5,0.77 0.767,1.242 0.767,1.242c0,0 -0.121,-0.515 -0.396,-1.426c-0.24,-0.683 -0.61,-1.602 -1.229,-2.609c0.259,0.071 0.516,0.141 0.778,0.212c0.467,0.134 0.886,0.351 1.353,0.524c0.499,0.175 0.819,0.395 1.248,0.594c0.227,0.093 0.349,0.233 0.532,0.349c0.162,0.127 0.37,0.229 0.513,0.378c0.622,0.561 1.174,1.269 1.585,2.141c0.392,0.881 0.7,1.872 0.862,2.915c0.359,2.077 0.382,4.214 0.421,6.039c0.03,1.835 0.072,3.382 0.159,4.455c0.092,1.075 0.174,1.678 0.174,1.678c0,0 0.091,-0.608 0.299,-1.648c0.131,-0.642 0.332,-1.459 0.575,-2.394c0.227,0.895 0.47,1.809 0.724,2.721c0.635,2.259 1.255,4.493 1.618,6.201c0.21,0.852 0.294,1.57 0.395,2.075c0.089,0.506 0.139,0.795 0.139,0.795c0,0 0.033,-0.291 0.088,-0.8c0.043,-0.509 0.165,-1.247 0.202,-2.129c0.129,-1.77 0.157,-4.144 0.177,-6.489c0.026,-2.336 0.1,-4.629 0.287,-6.278c0.058,-0.835 0.215,-1.494 0.272,-1.966c0.073,-0.466 0.115,-0.732 0.115,-0.732l-2.385,-0.096c0.084,-0.487 0.165,-0.982 0.225,-1.504" style="fill:#dea146;"/><path d="M61.542,68.553c0.144,-0.289 0.27,-0.541 0.373,-0.749c0.203,-0.41 0.318,-0.645 0.318,-0.645l-5.052,-1.894c-0,-0 -0.061,0.331 -0.167,0.912c-0.051,0.288 -0.113,0.637 -0.184,1.038c-0.079,0.398 -0.147,0.846 -0.166,1.34c-0.217,1.969 -0.108,4.538 0.227,6.993c0.392,2.452 0.967,4.802 1.466,6.537c0.492,1.737 0.85,2.877 0.85,2.877c-0,-0 -0.026,-1.2 -0.014,-2.989c0.003,-1.787 0.11,-4.163 0.396,-6.455c0.26,-1.738 0.639,-3.408 1.079,-4.767c0.019,0.833 0.009,1.859 0.053,2.895c0.03,1.3 0.233,2.613 0.47,3.549c0.109,0.471 0.286,0.844 0.368,1.108c0.094,0.26 0.148,0.409 0.148,0.409c-0,-0 -0.01,-0.159 -0.029,-0.437c-0.005,-0.28 -0.07,-0.664 -0.043,-1.133c0.035,-0.94 0.192,-2.153 0.511,-3.357c0.296,-1.209 0.674,-2.399 0.906,-3.379c0.131,-0.471 0.199,-0.911 0.253,-1.214c0.053,-0.306 0.084,-0.48 0.084,-0.48l-1.926,-0c0.027,-0.052 0.053,-0.11 0.079,-0.159" style="fill:#dea146;"/><path d="M55.45,44.37c0.366,-0.456 1.073,-0.826 1.822,-0.833c0.745,-0.019 1.469,0.226 1.934,0.499c0.475,0.269 0.712,0.522 0.712,0.522l0.577,-0.692c0,0 -0.361,-0.285 -0.968,-0.519c-0.599,-0.243 -1.464,-0.401 -2.304,-0.258c-0.85,0.128 -1.578,0.668 -1.886,1.198c-0.157,0.262 -0.26,0.493 -0.302,0.663c-0.05,0.167 -0.079,0.262 -0.079,0.262c0,0 0.042,-0.09 0.115,-0.248c0.064,-0.159 0.198,-0.37 0.379,-0.594" style="fill:#dea146;"/><path d="M126.746,56.304c-0.314,-0.891 -0.8,-2.16 -1.492,-3.647c-1.357,-2.989 -3.61,-6.795 -6.502,-10.321c-2.922,-3.467 -6.617,-6.659 -10.373,-8.181c-0.468,-0.187 -0.918,-0.367 -1.345,-0.538c-0.428,-0.176 -0.887,-0.254 -1.296,-0.371c-0.834,-0.204 -1.561,-0.41 -2.211,-0.438c-1.278,-0.126 -2.029,-0.167 -2.029,-0.167l0.918,9.642c0.022,0.078 1.164,-0.535 3.624,-0.297c2.447,0.158 6.075,1.671 9.438,3.919c3.34,2.284 6.45,5.168 8.505,7.574c1.044,1.194 1.848,2.255 2.393,3.015c0.529,0.775 0.831,1.218 0.831,1.218c-0,-0 -0.168,-0.512 -0.461,-1.408" style="fill:#dea146;"/><path d="M82.465,37.035c0.489,-0.442 1.324,-1.083 2.559,-1.758c2.452,-1.374 6.513,-2.633 10.743,-3.379c4.24,-0.708 8.655,-0.946 11.952,-0.73c1.65,0.102 3.024,0.291 3.984,0.466c0.957,0.209 1.504,0.328 1.504,0.328c-0,0 -0.496,-0.269 -1.364,-0.74c-0.885,-0.442 -2.187,-1.023 -3.805,-1.604c-3.234,-1.169 -7.728,-2.23 -12.387,-2.781c-4.658,-0.498 -9.495,-0.488 -13.357,0.345c-1.926,0.403 -3.601,0.988 -4.787,1.528c-1.196,0.602 -1.88,0.984 -1.88,0.984l6.16,8.035c-0,0 0.245,-0.228 0.678,-0.694" style="fill:#dea146;"/><path d="M58.847,50.018c0.767,0.139 1.199,0.675 1.214,0.64l2.291,-4.391c0,-0 -0.094,-0.033 -0.271,-0.096c-0.183,-0.055 -0.418,-0.163 -0.776,-0.238c-0.667,-0.18 -1.772,-0.335 -2.995,-0.059c-1.224,0.273 -2.422,0.993 -3.294,1.907c-0.896,0.908 -1.549,1.976 -2.062,3.054c-1.016,2.165 -1.467,4.412 -1.599,6.096c-0.146,1.692 0.102,2.781 0.102,2.781c0,-0 0.071,-1.111 0.654,-2.615c0.559,-1.498 1.587,-3.416 2.926,-4.923c0.663,-0.748 1.406,-1.389 2.104,-1.759c0.702,-0.39 1.31,-0.458 1.706,-0.397" style="fill:#dea146;"/><path d="M56.144,80.806c-0.372,0.649 -0.597,1.01 -1.464,0.833c-0.685,-0.14 -1.09,-1.08 -1.279,-1.66c-0.365,-1.122 0.552,-3.853 1.986,-2.447c0.638,0.625 1.561,-0.315 0.973,-0.973c-0.842,-0.94 -2.159,-1.094 -3.154,-0.274c-1.151,0.947 -1.455,2.417 -1.197,3.83c0.237,1.294 1.226,2.632 2.567,2.86c1.252,0.212 2.808,-0.99 2.787,-2.341c-0.282,0.047 -0.735,-0.062 -1.078,-0.187l-0.141,0.359Z" style="fill:#474748;fill-rule:nonzero;"/></g></g></g></svg>