<?xml version="1.0" encoding="UTF-8" standalone="no"?><!DOCTYPE svg PUBLIC "-//W3C//DTD SVG 1.1//EN" "http://www.w3.org/Graphics/SVG/1.1/DTD/svg11.dtd"><svg width="100%" height="100%" viewBox="0 0 177 177" version="1.1" xmlns="http://www.w3.org/2000/svg" xmlns:xlink="http://www.w3.org/1999/xlink" xml:space="preserve" xmlns:serif="http://www.serif.com/" style="fill-rule:evenodd;clip-rule:evenodd;stroke-linecap:round;stroke-linejoin:round;stroke-miterlimit:10;"><g><path d="M88.491,175.298c-48.024,0 -86.956,-38.951 -86.956,-87c0,-48.049 38.932,-87 86.956,-87c48.025,0 86.957,38.951 86.957,87c0,48.049 -38.932,87 -86.957,87" style="fill:#e58b77;fill-rule:nonzero;"/><g><clipPath id="_clip1"><path d="M1.535,88.298c-0,48.048 38.932,86.999 86.957,86.999c48.025,0 86.957,-38.951 86.957,-86.999c-0,-48.049 -38.932,-87 -86.957,-87c-48.025,0 -86.957,38.951 -86.957,87Z" clip-rule="nonzero"/></clipPath><g clip-path="url(#_clip1)"><path d="M55.38,67.543c2.406,-0.792 5.469,1.939 6.838,6.101c1.371,4.162 0.531,8.18 -1.877,8.972c-2.404,0.792 -5.469,-1.938 -6.838,-6.101c-1.371,-4.162 -0.531,-8.179 1.877,-8.972" style="fill:#f5be92;"/><path d="M125.745,67.544c-2.408,-0.793 -5.471,1.938 -6.84,6.1c-1.371,4.162 -0.531,8.18 1.875,8.972c2.408,0.792 5.471,-1.939 6.842,-6.101c1.371,-4.162 0.529,-8.179 -1.877,-8.971" style="fill:#f5be92;"/><path d="M113.458,34.666c6.732,1.074 10.457,5.689 12.051,11.954c4.15,16.307 -4.537,51.673 -34.61,52.094c-15.505,0.218 -26.675,-3.725 -30.746,-16.277c-4.068,-12.551 -5.738,-32.777 3.106,-44.113c11.129,-14.262 34.486,-14.395 50.199,-3.658" style="fill:#92653d;"/><path d="M77.893,117.8c-28.145,12.339 -36.586,18.916 -39.924,21.869c-5.142,4.551 -8.162,22.106 -11.195,36.508l127.346,-0c-3.034,-14.402 -5.704,-31.957 -10.846,-36.508c-3.336,-2.953 -11.471,-9.361 -39.613,-21.7l-25.768,-0.169Z" style="fill:#179e85;stroke:#179e85;stroke-width:1.12px;"/><path d="M104.29,115.574l-0,13c-7.521,9.2 -19.82,8.88 -27.33,-0l-0,-13c7.51,8.88 19.809,9.2 27.33,-0Z" style="fill:#117865;stroke:#179e85;stroke-width:1.12px;"/><path d="M104.29,113.573l-0,13c-7.521,9.2 -19.82,8.88 -27.33,-0l-0,-13c7.51,8.88 19.809,9.2 27.33,-0Z" style="fill:#179e85;stroke:#179e85;stroke-width:1.12px;"/><path d="M104.29,93.202l-0,20.37c-7.521,9.2 -19.82,8.88 -27.33,0l-0,-20.37c-0,-16.84 27.33,-16.84 27.33,0" style="fill:#f5be92;"/><path d="M90.622,37.199c-45.863,-0 -29.369,59.754 -26.373,64.166c3.303,4.864 18.963,13.421 26.373,13.421c7.41,-0 23.07,-9.64 26.375,-14.505c2.994,-4.412 19.488,-63.082 -26.375,-63.082" style="fill:#f5be92;"/><path d="M77.51,68.121c-4.488,-0.24 -10.436,0.326 -11.534,0.704c-1.411,0.487 -1.456,0.614 -1.556,1.761c-0.096,1.148 0.053,2.136 0.864,2.431c1.115,0.401 1.078,1.936 1.689,6.345c0.549,4.013 2.095,7.184 9.141,7.745c0.36,0.03 0.709,0.042 1.048,0.045l0.022,-1.12c-3.238,0.027 -6.839,-1.199 -8.052,-3.702c-1.7,-3.511 -1.938,-10.608 0.432,-12.093c1.023,-0.642 4.418,-1.086 7.928,-0.926l0.018,-1.19Zm13.498,2.271c-1.562,0.038 -7.955,-1.807 -12.502,-2.199c-0.322,-0.03 -0.653,-0.054 -0.996,-0.072l-0.018,1.19c3.696,0.169 7.524,1.007 8.832,2.978c2.153,3.239 -1.712,11.154 -5.209,12.916c-1.06,0.536 -2.46,0.812 -3.931,0.827l-0.022,1.12c6.121,0.009 8.383,-4.403 9.138,-5.876c1.423,-2.77 1.128,-6.592 4.632,-6.599c3.498,-0.009 3.04,3.743 4.291,6.511c0.676,1.493 2.66,6.077 9.012,5.896l0.015,-1.116c-1.564,0.026 -3.054,-0.244 -4.145,-0.805c-3.388,-1.749 -6.776,-9.645 -4.423,-12.891c1.415,-1.958 5.215,-2.817 8.877,-3.014l0.018,-1.187c-0.28,0.015 -0.557,0.035 -0.825,0.062c-4.096,0.371 -9.062,2.162 -12.744,2.259m13.227,16.692c0.243,-0.006 0.498,-0.021 0.757,-0.043c7.078,-0.592 8.822,-3.772 9.616,-7.789c0.877,-4.412 0.931,-5.946 2.072,-6.353c0.834,-0.3 1.038,-1.286 1.014,-2.436c-0.032,-1.146 -0.067,-1.271 -1.448,-1.747c-1.091,-0.383 -7.135,-0.93 -11.669,-0.645l-0.018,1.187c3.57,-0.195 7.015,0.236 8.014,0.882c2.272,1.471 1.609,8.573 -0.305,12.091c-1.33,2.442 -4.848,3.685 -8.018,3.737l-0.015,1.116Z" style="fill:#179e85;"/><path d="M77.51,68.121c-4.488,-0.24 -10.436,0.326 -11.534,0.704c-1.411,0.487 -1.456,0.614 -1.556,1.761c-0.096,1.148 0.053,2.136 0.864,2.431c1.115,0.401 1.078,1.936 1.689,6.345c0.549,4.013 2.095,7.184 9.141,7.745c0.36,0.03 0.709,0.042 1.048,0.045l0.022,-1.12c-3.238,0.027 -6.839,-1.199 -8.052,-3.702c-1.7,-3.511 -1.938,-10.608 0.432,-12.093c1.023,-0.642 4.418,-1.086 7.928,-0.926l0.018,-1.19Zm13.498,2.271c-1.562,0.038 -7.955,-1.807 -12.502,-2.199c-0.322,-0.03 -0.653,-0.054 -0.996,-0.072l-0.018,1.19c3.696,0.169 7.524,1.007 8.832,2.978c2.153,3.239 -1.712,11.154 -5.209,12.916c-1.06,0.536 -2.46,0.812 -3.931,0.827l-0.022,1.12c6.121,0.009 8.383,-4.403 9.138,-5.876c1.423,-2.77 1.128,-6.592 4.632,-6.599c3.498,-0.009 3.04,3.743 4.291,6.511c0.676,1.493 2.66,6.077 9.012,5.896l0.015,-1.116c-1.564,0.026 -3.054,-0.244 -4.145,-0.805c-3.388,-1.749 -6.776,-9.645 -4.423,-12.891c1.415,-1.958 5.215,-2.817 8.877,-3.014l0.018,-1.187c-0.28,0.015 -0.557,0.035 -0.825,0.062c-4.096,0.371 -9.062,2.162 -12.744,2.259Zm13.227,16.692c0.243,-0.006 0.498,-0.021 0.757,-0.043c7.078,-0.592 8.822,-3.772 9.616,-7.789c0.877,-4.412 0.931,-5.946 2.072,-6.353c0.834,-0.3 1.038,-1.286 1.014,-2.436c-0.032,-1.146 -0.067,-1.271 -1.448,-1.747c-1.091,-0.383 -7.135,-0.93 -11.669,-0.645l-0.018,1.187c3.57,-0.195 7.015,0.236 8.014,0.882c2.272,1.471 1.609,8.573 -0.305,12.091c-1.33,2.442 -4.848,3.685 -8.018,3.737l-0.015,1.116Z" style="fill:none;fill-rule:nonzero;stroke:#179e85;stroke-width:1.12px;"/><path d="M118.65,51.117c0.036,-0.048 0.082,-0.099 0.116,-0.146c0.392,-0.466 0.624,-0.936 0.831,-1.232c0.194,-0.309 0.304,-0.485 0.304,-0.485l-2.363,-1.024c0,0 -0.06,0.16 -0.163,0.442c-0.121,0.276 -0.216,0.704 -0.467,1.173c-0.426,0.967 -1.198,2.212 -2.058,3.438c-0.877,1.219 -1.801,2.436 -2.454,3.374c-0.65,0.942 -1.052,1.585 -1.052,1.585c0,0 0.531,-0.546 1.356,-1.321c0.829,-0.773 1.974,-1.754 3.114,-2.783c0.518,-0.48 1.026,-0.978 1.499,-1.472c0.004,0.1 0.009,0.198 0.014,0.306c-0.019,0.164 -0.038,0.336 -0.059,0.516c-0.073,1.458 -0.612,3.415 -1.423,5.337c-0.894,1.875 -2.021,3.703 -3.025,4.964c-0.463,0.667 -0.942,1.14 -1.239,1.511c-0.31,0.361 -0.487,0.567 -0.487,0.567c0,0 0.216,-0.164 0.594,-0.45c0.366,-0.3 0.949,-0.672 1.549,-1.231c1.272,-1.045 2.811,-2.632 4.194,-4.425c1.3,-1.842 2.403,-3.918 2.884,-5.664c0.07,-0.214 0.138,-0.419 0.202,-0.615c0.038,-0.203 0.073,-0.396 0.107,-0.578c0.065,-0.367 0.123,-0.686 0.17,-0.95c0.09,-0.532 0.142,-0.837 0.142,-0.837l-2.286,0Z" style="fill:#92653d;"/><path d="M69.53,42.266l0.08,-0.076c-0.022,-0 -0.089,0.009 -0.08,0.076" style="fill:#92653d;"/><path d="M114.429,52.244c1.11,-0.772 2.161,-1.856 2.602,-2.987c0.127,-0.272 0.206,-0.535 0.257,-0.778c0.067,-0.239 0.108,-0.451 0.116,-0.628c0.031,-0.357 0.048,-0.56 0.048,-0.56l-2.214,0.152c-0.025,0 0.138,0.478 0.01,1.239c-0.099,0.765 -0.692,1.807 -1.549,2.726c-0.853,0.921 -1.869,1.752 -2.619,2.384c-0.755,0.63 -1.235,1.075 -1.235,1.075c-0,0 0.563,-0.333 1.43,-0.788c0.865,-0.46 2.035,-1.053 3.154,-1.835" style="fill:#92653d;"/><path d="M112.376,46.065c0.074,0.006 0.158,0.013 0.231,0.019c0.578,0.078 1.123,0.151 1.639,0.221c-0.056,0.124 -0.137,0.303 -0.238,0.527c-0.152,0.45 -0.565,0.957 -0.919,1.51c-0.822,1.034 -1.744,2.026 -1.744,2.026c-0,-0 1.097,-0.765 2.158,-1.633c0.485,-0.485 1.035,-0.929 1.322,-1.395c0.322,-0.44 0.538,-0.733 0.538,-0.733l-0.424,-0.195c0.748,0.126 1.402,0.277 1.944,0.457c0.698,0.227 1.192,0.536 1.444,0.835c0.253,0.302 0.245,0.549 0.268,0.539c-0.027,0.008 0.04,-0.23 -0.158,-0.613c-0.197,-0.376 -0.665,-0.827 -1.34,-1.22c-0.674,-0.398 -1.544,-0.785 -2.551,-1.153c-0.238,-0.086 -0.507,-0.183 -0.76,-0.275c-0.022,-0.016 -0.043,-0.029 -0.066,-0.045l-0,-4.566c-0,-0 -0.527,0.084 -1.448,0.23c-0.228,0.044 -0.482,0.074 -0.75,0.143c-0.264,0.085 -0.549,0.177 -0.855,0.276c-0.301,0.102 -0.62,0.21 -0.957,0.324c-0.204,0.092 -0.417,0.201 -0.627,0.307c-0.047,-0.026 -0.093,-0.052 -0.14,-0.077c-0.048,-0.036 -0.086,-0.064 -0.137,-0.102c-0.326,-0.257 -0.74,-0.542 -1.237,-0.839c-0.488,-0.312 -1.043,-0.666 -1.69,-0.98c-1.26,-0.706 -2.851,-1.305 -4.605,-1.837c-1.763,-0.496 -3.696,-0.822 -5.636,-1.041c-1.928,-0.186 -3.854,-0.255 -5.463,-0.47c-0.405,-0.055 -0.811,-0.089 -1.191,-0.157c-0.368,-0.086 -0.728,-0.171 -1.079,-0.253c-0.739,-0.134 -1.243,-0.381 -1.756,-0.543c-0.263,-0.109 -0.539,-0.261 -0.786,-0.377c-0.267,-0.131 -0.521,-0.254 -0.76,-0.37c-0.571,-0.265 -0.974,-0.503 -1.477,-0.686c-0.998,-0.356 -1.569,-0.56 -1.569,-0.56l-0.59,3.15c-0.174,-0.076 -0.354,-0.155 -0.515,-0.226c-0.321,-0.15 -0.622,-0.291 -0.9,-0.421c-0.339,-0.144 -0.651,-0.276 -0.932,-0.397c-0.527,-0.247 -1.186,-0.414 -1.548,-0.53c-0.388,-0.112 -0.596,-0.172 -0.596,-0.172l-0.761,4.945c-0.395,-0.077 -0.732,-0.154 -1.021,-0.239c-0.593,-0.167 -0.972,-0.366 -0.948,-0.437c0.026,-0.015 0.055,-0.012 0.07,-0.016l0.011,-0.04c0.009,-0.025 0.021,-0.044 0.031,-0.059c0.02,-0.029 0.034,-0.04 0.034,-0.04l-4.009,3.789c-0.077,-0.056 -0.139,-0.108 -0.183,-0.155c-0.123,-0.124 -0.163,-0.197 -0.17,-0.245l-8.451,8.029c-0,-0 0.044,0.041 0.109,0.099c-0.685,0.281 -1.4,0.565 -2.163,0.879c-2.686,1.205 -5.248,2.368 -7.343,2.409c-1.027,0.03 -1.876,-0.269 -2.36,-0.651c-0.501,-0.361 -0.713,-0.68 -0.727,-0.663c0.018,-0.015 0.15,0.336 0.587,0.822c0.416,0.507 1.282,1.05 2.428,1.261c1.248,0.248 2.726,0.153 4.261,-0.075c-1.552,1.005 -3.006,1.987 -4.448,2.739c-0.859,0.472 -1.708,0.804 -2.534,1.08c-0.821,0.203 -1.632,0.365 -2.363,0.28c-1.492,-0.091 -2.617,-0.884 -3.311,-1.5c-0.639,-0.678 -0.995,-1.107 -0.995,-1.107c-0,-0 0.247,0.479 0.754,1.315c0.565,0.764 1.571,1.921 3.335,2.431c0.865,0.288 1.848,0.313 2.873,0.278c1.002,-0.103 2.065,-0.282 3.093,-0.589c2.083,-0.573 4.164,-1.465 6.151,-2.187c0.682,-0.256 1.367,-0.455 2.049,-0.63c-0.664,0.371 -1.328,0.75 -1.979,1.143c-0.841,0.524 -1.682,1.048 -2.51,1.564c-0.79,0.539 -1.568,1.071 -2.322,1.584c-1.504,1.048 -2.902,1.928 -4.116,2.735c-1.21,0.79 -2.294,1.288 -3.029,1.717c-0.747,0.406 -1.174,0.639 -1.174,0.639c-0,-0 0.463,-0.136 1.275,-0.375c0.801,-0.261 2.012,-0.534 3.377,-1.057c1.351,-0.529 2.984,-1.128 4.647,-1.822c0.838,-0.341 1.705,-0.694 2.585,-1.052c0.878,-0.315 1.77,-0.635 2.661,-0.955c2.595,-0.885 5.198,-1.593 7.485,-2.033c-0.433,0.38 -0.873,0.756 -1.324,1.121c-2.97,2.429 -6.344,4.39 -9.129,5.231c-1.387,0.439 -2.605,0.561 -3.466,0.61c-0.857,-0.006 -1.361,-0.043 -1.361,-0.043c-0,-0 0.473,0.14 1.338,0.333c0.867,0.137 2.149,0.283 3.687,0.139c3.082,-0.248 7.076,-1.537 10.758,-3.421c0.695,-0.352 1.368,-0.734 2.04,-1.116c-1.684,2.054 -3.4,3.856 -5.053,5.062c-1.179,0.919 -2.305,1.471 -3.098,1.866c-0.826,0.326 -1.297,0.512 -1.297,0.512c-0,-0 0.505,-0.084 1.389,-0.23c0.867,-0.219 2.14,-0.536 3.556,-1.217c2.884,-1.275 6.272,-3.887 9.342,-6.617c0.283,-0.247 0.563,-0.493 0.843,-0.739c-1.029,1.314 -1.965,2.558 -2.779,3.633c-1.837,2.445 -3.101,4.045 -3.101,4.045c-0,-0 1.575,-1.3 3.89,-3.305c2.317,-1.997 5.397,-4.673 8.631,-6.966c1.364,-0.943 2.742,-1.817 4.089,-2.553c-1.712,1.953 -3.236,3.809 -4.579,5.284c-0.548,0.604 -1.051,1.157 -1.497,1.648c-0.469,0.467 -0.879,0.873 -1.216,1.208c-0.68,0.674 -1.068,1.059 -1.068,1.059c-0,-0 0.46,-0.294 1.266,-0.809c0.406,-0.26 0.898,-0.575 1.462,-0.936c0.545,-0.39 1.159,-0.829 1.829,-1.308c2.681,-1.917 6.084,-4.742 9.629,-7.023c0.444,-0.283 0.88,-0.577 1.324,-0.845c0.454,-0.244 0.905,-0.488 1.352,-0.729c0.262,-0.138 0.519,-0.28 0.775,-0.419c0.104,-0.009 0.175,-0.015 0.175,-0.015l-0.011,-0.069c0.127,-0.067 0.253,-0.137 0.382,-0.198c0.452,-0.187 0.896,-0.373 1.334,-0.556c0.432,-0.181 0.857,-0.359 1.273,-0.534c0.263,-0.091 0.515,-0.178 0.772,-0.267c-0.524,0.601 -1.044,1.184 -1.56,1.734c-1.081,1.088 -2.13,2.091 -3.16,2.762c-0.254,0.173 -0.494,0.356 -0.734,0.502c-0.248,0.133 -0.484,0.259 -0.705,0.378c-0.225,0.12 -0.434,0.233 -0.628,0.337c-0.199,0.09 -0.391,0.15 -0.562,0.217c-0.693,0.256 -1.088,0.403 -1.088,0.403c-0,-0 0.42,-0.06 1.154,-0.166c0.185,-0.03 0.395,-0.049 0.615,-0.097c0.218,-0.062 0.453,-0.13 0.704,-0.202c0.254,-0.073 0.525,-0.151 0.81,-0.234c0.279,-0.096 0.56,-0.228 0.862,-0.35c1.228,-0.471 2.532,-1.269 3.902,-2.159c1.337,-0.922 2.709,-1.972 4.043,-2.998c1.337,-1.009 2.659,-1.999 3.915,-2.734c1.26,-0.721 2.429,-1.269 3.423,-1.478c0.729,-0.178 1.353,-0.243 1.853,-0.26" style="fill:#92653d;"/><path d="M109.97,96.242c-2,3 -5,-2 -8,-4c-6.917,-4.167 -14.609,-3.486 -21,0c-4.583,2.5 -5.667,7.167 -8,5c-5.337,-3.558 -7.008,-13.542 -13.583,-15.333c1.226,9.118 3.893,18.028 4.862,19.456c3.303,4.864 18.963,13.42 26.373,13.42c7.41,0 23.071,-9.64 26.375,-14.505c1.03,-1.516 3.654,-9.442 4.792,-19.193c-6.372,0.943 -8.34,9.937 -11.819,15.155" style="fill:#92653d;"/><path d="M79.137,99.076c0.08,-3.206 2.788,-5.5 11.311,-5.917c8.522,-0.416 12.096,2.28 12.106,5.5c0.005,1.554 -0.401,2.869 -2.084,4.25c-2.306,1.894 -6.709,0.049 -9.833,-0c-3.092,-0.047 -7.002,2.646 -9.333,0.917c-1.743,-1.293 -2.216,-2.781 -2.167,-4.75" style="fill:#f5be92;"/></g></g></g></svg>