<?xml version="1.0" encoding="UTF-8" standalone="no"?><!DOCTYPE svg PUBLIC "-//W3C//DTD SVG 1.1//EN" "http://www.w3.org/Graphics/SVG/1.1/DTD/svg11.dtd"><svg width="100%" height="100%" viewBox="0 0 177 177" version="1.1" xmlns="http://www.w3.org/2000/svg" xmlns:xlink="http://www.w3.org/1999/xlink" xml:space="preserve" xmlns:serif="http://www.serif.com/" style="fill-rule:evenodd;clip-rule:evenodd;stroke-linecap:round;stroke-linejoin:round;stroke-miterlimit:10;"><g><path d="M88.001,175c-48.025,0 -86.957,-38.952 -86.957,-87.001c-0,-48.049 38.932,-86.999 86.957,-86.999c48.024,0 86.956,38.95 86.956,86.999c-0,48.049 -38.932,87.001 -86.956,87.001" style="fill:#878aa0;fill-rule:nonzero;"/><g><clipPath id="_clip1"><path d="M1.044,87.999c-0,48.049 38.931,87.001 86.956,87.001c48.025,-0 86.956,-38.952 86.956,-87.001c-0,-48.048 -38.931,-86.998 -86.956,-86.998c-48.025,-0 -86.956,38.95 -86.956,86.998Z" clip-rule="nonzero"/></clipPath><g clip-path="url(#_clip1)"><path d="M100.854,126.832c-0.266,0.414 -26.25,0.828 -26.538,1.238c-8.161,11.643 -25.795,16.744 -39.817,19.879c-13.953,3.121 -14.493,20.846 -14.514,32.651l136.029,0c-0.019,-11.805 -0.279,-29.467 -14.515,-32.651c-14.237,-3.183 -32.903,-8.945 -40.645,-21.117Z" style="fill:#e75e51;stroke:#e75e51;stroke-width:1.12px;"/><path d="M74.37,101.967l0,33.389c-4.732,8.925 8.563,37.257 13.712,37.195c4.778,-0.059 17.948,-26.025 13.547,-37.195l0,-33.389c0,-18.029 -27.259,-18.029 -27.259,-0" style="fill:#ffcead;"/><path d="M124.087,86.756c-2.736,-1.174 -6.602,1.707 -8.629,6.431c-2.031,4.727 -1.463,9.509 1.274,10.684c2.734,1.172 6.597,-1.707 8.628,-6.434c2.032,-4.724 1.463,-9.505 -1.273,-10.681" style="fill:#ffcead;"/><path d="M51.884,86.756c2.736,-1.174 6.599,1.705 8.631,6.431c2.03,4.727 1.46,9.509 -1.276,10.684c-2.734,1.172 -6.597,-1.705 -8.628,-6.434c-2.032,-4.724 -1.461,-9.505 1.273,-10.681" style="fill:#ffcead;"/><path d="M87.999,125.063c-8.872,-0 -27.617,-13.95 -33.412,-33.93c-5.853,-20.176 5.166,-49.114 33.412,-49.114c28.244,-0 39.268,28.938 33.414,49.114c-5.795,19.98 -24.539,33.93 -33.414,33.93" style="fill:#ffcead;"/><path d="M53.637,90.746c-6.907,-37.86 15.476,-49.872 34.362,-49.872c21.273,-0 43.263,16.315 33.086,51.12c-13.139,-23.711 -38.817,-3.009 -56.735,-26.761c-3.051,12.067 -5.11,17.748 -10.713,25.513" style="fill:#eba946;"/><path d="M125.221,41.686c0,9.151 -7.419,16.57 -16.57,16.57c-9.153,-0 -16.572,-7.419 -16.572,-16.57c0,-9.152 7.419,-16.571 16.572,-16.571c9.151,-0 16.57,7.419 16.57,16.571" style="fill:#eba946;"/><path d="M123.012,80.949c0,0 -2.334,22.668 -7.334,31.334l-0.334,-44l7.668,12.666Z" style="fill:#eba946;"/><path d="M52.622,80.8c-0,-0 1.5,22.687 7.033,31.396l0.334,-44l-7.367,12.604Z" style="fill:#eba946;"/><path d="M92.198,41.106c-0,0 0.469,-0.251 1.304,-0.633c0.212,-0.089 0.433,-0.212 0.699,-0.301c0.268,-0.087 0.566,-0.16 0.888,-0.249c0.325,-0.086 0.672,-0.178 1.037,-0.275c0.365,-0.063 0.751,-0.092 1.157,-0.142c0.405,-0.031 0.835,-0.121 1.274,-0.108c0.443,0.01 0.901,0.02 1.37,0.03c0.479,-0.009 0.951,0.088 1.442,0.157c0.486,0.081 0.999,0.132 1.492,0.271c0.994,0.262 2.027,0.544 3.011,0.99c1.021,0.37 1.955,0.95 2.917,1.471c0.905,0.613 1.833,1.196 2.631,1.918c0.851,0.655 1.56,1.446 2.27,2.172c0.649,0.787 1.296,1.526 1.791,2.317c0.248,0.392 0.489,0.774 0.722,1.143c0.228,0.37 0.392,0.766 0.578,1.123c0.176,0.363 0.354,0.704 0.503,1.038c0.122,0.347 0.237,0.676 0.346,0.985c0.227,0.611 0.389,1.151 0.469,1.614c0.193,0.915 0.263,1.432 0.263,1.432c-0,0 -0.315,-0.44 -0.798,-1.203c-0.221,-0.391 -0.564,-0.825 -0.928,-1.328c-0.18,-0.249 -0.373,-0.515 -0.576,-0.794c-0.219,-0.266 -0.451,-0.546 -0.692,-0.837c-0.455,-0.596 -1.029,-1.176 -1.608,-1.8c-0.562,-0.636 -1.254,-1.218 -1.907,-1.861c-0.717,-0.582 -1.409,-1.23 -2.199,-1.781c-0.752,-0.601 -1.582,-1.11 -2.393,-1.647c-0.846,-0.47 -1.668,-1 -2.543,-1.376c-0.438,-0.188 -0.85,-0.436 -1.289,-0.593c-0.435,-0.17 -0.866,-0.337 -1.29,-0.502c-0.421,-0.179 -0.86,-0.256 -1.276,-0.401c-0.42,-0.129 -0.831,-0.27 -1.243,-0.337c-0.818,-0.17 -1.6,-0.371 -2.338,-0.422c-0.371,-0.044 -0.727,-0.087 -1.065,-0.127c-0.335,-0.009 -0.654,-0.019 -0.953,-0.028c-0.304,-0.011 -0.59,-0.012 -0.862,-0.031c-0.273,-0.009 -0.528,0.032 -0.757,0.043c-0.916,0.066 -1.447,0.072 -1.447,0.072" style="fill:#fff;fill-rule:nonzero;"/><path d="M65.448,78.919c-0,-0 -0.3,-1.084 -0.75,-2.71c-0.509,-1.632 -0.904,-3.85 -1.388,-6.088c-0.785,-4.479 -1.393,-8.952 -1.393,-8.952l5.062,-0c-0,-0 -0.657,4.428 -1.14,8.844c-0.152,2.197 -0.391,4.434 -0.356,6.1c-0.021,1.684 -0.035,2.806 -0.035,2.806" style="fill:#eba946;"/><path d="M131.948,97.919c-0,-0 -0.354,0.316 -0.973,0.87c-0.313,0.283 -0.773,0.516 -1.283,0.851c-0.555,0.223 -1.198,0.55 -1.993,0.619c-1.571,0.261 -3.594,-0.311 -5.199,-1.548c-1.611,-1.229 -2.934,-2.918 -3.962,-4.762c-1.029,-1.851 -1.761,-3.901 -2.109,-5.972c-0.333,-2.051 -0.36,-3.815 -0.453,-5.206c-0.033,-0.719 -0.091,-1.289 -0.132,-1.825c-0.064,-0.486 -0.12,-0.91 -0.166,-1.258c-0.134,-0.616 -0.21,-0.967 -0.21,-0.967l8.46,-0.604c-0,-0 -0.047,0.58 -0.131,1.595c-0.075,0.467 -0.163,1.032 -0.266,1.682c-0.125,0.597 -0.261,1.305 -0.424,1.98c-0.311,1.392 -0.701,2.883 -0.886,4.33c-0.181,1.422 -0.109,3.063 0.254,4.668c0.36,1.608 0.993,3.181 1.886,4.404c0.896,1.212 2.094,1.988 3.324,2.158c0.616,0.133 1.205,0.016 1.744,-0.033c0.509,-0.162 1,-0.25 1.362,-0.426c0.736,-0.354 1.157,-0.556 1.157,-0.556" style="fill:#eba946;"/><path d="M45.198,99.669c-0,-0 0.245,-0.012 0.675,-0.032c0.422,-0.032 1.026,-0.111 1.708,-0.322c1.375,-0.374 3.044,-1.325 4.318,-2.577c0.629,-0.637 1.159,-1.333 1.549,-2.011c0.36,-0.695 0.629,-1.34 0.716,-1.9c0.072,-0.274 0.096,-0.524 0.098,-0.744c0.02,-0.217 0.03,-0.401 0.003,-0.555c-0.023,-0.296 -0.036,-0.464 -0.036,-0.464l4.438,0.21c-0,-0 -0.071,0.316 -0.195,0.869c-0.052,0.276 -0.162,0.594 -0.306,0.951c-0.127,0.363 -0.297,0.754 -0.53,1.148c-0.418,0.819 -1.076,1.63 -1.822,2.389c-0.772,0.738 -1.672,1.387 -2.616,1.909c-1.909,1.021 -3.984,1.485 -5.52,1.462c-0.764,0.013 -1.394,-0.085 -1.818,-0.175c-0.421,-0.1 -0.662,-0.158 -0.662,-0.158" style="fill:#eba946;"/><path d="M112.713,88.115c-1.243,5.131 -6.882,9.304 -12.465,9.06c-1.579,-0.069 -3.232,-0.377 -4.683,-0.982c-3.873,-1.609 -4.636,-5.98 -1.698,-8.972c2.098,-2.132 4.852,-2.696 7.637,-3.126c1.399,-0.214 2.827,-0.252 4.778,-0.417c1.16,0.198 2.853,0.342 4.459,0.795c1.905,0.539 2.44,1.719 1.972,3.642m-32.264,8.084c-4.086,1.741 -8.142,1.418 -11.866,-1.042c-2.556,-1.687 -4.49,-3.963 -5.313,-7.01c-0.512,-1.901 0.046,-3.131 1.935,-3.662c1.679,-0.47 3.449,-0.616 5.179,-0.905c2.973,0.264 5.891,0.515 8.61,1.672c1.172,0.496 2.348,1.223 3.224,2.133c2.844,2.96 2.012,7.201 -1.769,8.814m37.711,-12.366c-4.446,-1.292 -8.968,-2.194 -13.626,-1.856c-3.933,0.284 -7.784,0.97 -11.023,3.502c-0.145,0.114 -0.324,0.248 -0.489,0.248c-0.812,0.003 -1.627,-0.056 -2.439,-0.054c-2.574,0.006 -5.148,0.035 -7.724,0.035c-0.159,0 -0.312,-0.206 -0.483,-0.286c-1.823,-0.86 -3.579,-1.967 -5.491,-2.524c-6.348,-1.843 -12.629,-0.913 -18.837,0.873c-1.712,0.493 -1.817,1.031 -0.586,2.336c1.947,2.068 3.926,4.114 5.776,6.268c3.698,4.31 8.291,6.376 13.977,5.725c3.397,-0.387 6.433,-1.514 7.646,-5.128c0.488,-1.457 0.641,-3.027 0.999,-4.809c1.327,-0.362 2.952,-0.36 4.59,0.076c-0.281,3.396 0.915,7.797 5.065,9.102c5.616,1.764 10.857,1.082 15.242,-3.031c2.849,-2.674 5.4,-5.667 8.051,-8.548c0.907,-0.983 0.713,-1.536 -0.648,-1.929" style="fill:#546c90;fill-rule:nonzero;"/><path d="M55.198,101.419l-0,8.5" style="fill:none;fill-rule:nonzero;stroke:#fff;stroke-width:1px;"/><path d="M56.198,109.836c-0,0.553 -0.448,1 -1,1c-0.552,-0 -1,-0.447 -1,-1c-0,-0.553 0.448,-1 1,-1c0.552,-0 1,0.447 1,1" style="fill:#fff;fill-rule:nonzero;"/><path d="M120.282,101.419l-0,8.5" style="fill:none;fill-rule:nonzero;stroke:#fff;stroke-width:1px;"/><path d="M121.282,109.836c-0,0.553 -0.448,1 -1,1c-0.553,-0 -1,-0.447 -1,-1c-0,-0.553 0.447,-1 1,-1c0.552,-0 1,0.447 1,1" style="fill:#fff;fill-rule:nonzero;"/><path d="M102.978,134.693c0,3.422 -6.717,6.195 -15,6.195c-8.283,0 -15,-2.773 -15,-6.195c0,-0.555 0.177,-1.092 0.508,-1.604c1.711,-2.644 7.552,-4.591 14.492,-4.591c7.163,0 13.154,2.074 14.644,4.847c0.233,0.434 0.356,0.885 0.356,1.348Z" style="fill:none;fill-rule:nonzero;stroke:#fff;stroke-width:1px;stroke-linecap:butt;stroke-linejoin:miter;"/><path d="M74.356,128.379l0,5.672c9.39,2.615 17.923,-1.644 27.259,-0.317l0,-8.398c-8.731,-3.798 -18.896,-0.267 -27.259,3.043" style="fill:#ffcead;"/><path d="M89.302,142.284c0,0.553 -0.448,1 -1,1c-0.553,0 -1,-0.447 -1,-1c0,-0.553 0.447,-1 1,-1c0.552,0 1,0.447 1,1" style="fill:#fff;fill-rule:nonzero;"/></g></g></g></svg>