<?xml version="1.0" encoding="UTF-8" standalone="no"?><!DOCTYPE svg PUBLIC "-//W3C//DTD SVG 1.1//EN" "http://www.w3.org/Graphics/SVG/1.1/DTD/svg11.dtd"><svg width="100%" height="100%" viewBox="0 0 176 176" version="1.1" xmlns="http://www.w3.org/2000/svg" xmlns:xlink="http://www.w3.org/1999/xlink" xml:space="preserve" xmlns:serif="http://www.serif.com/" style="fill-rule:evenodd;clip-rule:evenodd;stroke-miterlimit:10;"><g><path d="M88,175c-48.024,-0 -86.957,-38.951 -86.957,-87c0,-48.048 38.933,-87 86.957,-87c48.024,-0 86.956,38.952 86.956,87c0,48.049 -38.932,87 -86.956,87" style="fill:#bccef7;fill-rule:nonzero;"/><g><clipPath id="_clip1"><path d="M1.044,88c-0,48.049 38.933,87 86.957,87c48.025,0 86.956,-38.951 86.956,-87c-0,-48.048 -38.931,-87 -86.956,-87c-48.024,0 -86.957,38.952 -86.957,87Z" clip-rule="nonzero"/></clipPath><g clip-path="url(#_clip1)"><path d="M53.734,66.953c2.406,-0.793 5.469,1.939 6.839,6.102c1.371,4.161 0.531,8.179 -1.877,8.97c-2.405,0.793 -5.469,-1.937 -6.838,-6.1c-1.372,-4.161 -0.531,-8.179 1.876,-8.972" style="fill:#ffc785;"/><path d="M124.1,66.954c-2.408,-0.794 -5.471,1.938 -6.841,6.101c-1.37,4.161 -0.53,8.179 1.876,8.97c2.408,0.793 5.471,-1.938 6.841,-6.1c1.372,-4.161 0.53,-8.179 -1.876,-8.971" style="fill:#ffc785;"/><path d="M68.227,34.076c-6.732,1.073 -10.457,5.688 -12.051,11.953c-4.15,16.307 4.537,51.674 34.61,52.095c15.505,0.218 26.676,-3.726 30.746,-16.277c4.069,-12.552 5.739,-32.778 -3.106,-44.114c-11.129,-14.261 -34.486,-14.395 -50.199,-3.657" style="fill:#92653d;"/><path d="M76.248,117.21c-28.144,12.339 -36.585,18.915 -39.923,21.868c-5.142,4.551 -8.162,22.107 -11.195,36.509l127.346,-0c-3.034,-14.402 -5.704,-31.958 -10.846,-36.509c-3.337,-2.953 -11.471,-9.361 -39.613,-21.699l-25.769,-0.169Z" style="fill:#546c90;"/><path d="M75.313,92.616l-0,33.366c7.514,8.885 19.812,9.203 27.328,0l-0,-33.366c-0,-16.845 -27.328,-16.845 -27.328,0" style="fill:#ffc785;"/><path d="M88.977,36.609c-45.863,0 -29.369,59.754 -26.374,64.166c3.304,4.863 18.964,13.42 26.374,13.42c7.41,0 23.07,-9.64 26.374,-14.505c2.995,-4.411 19.489,-63.081 -26.374,-63.081" style="fill:#ffc785;"/><path d="M66.645,51.008c8.058,4.899 14.292,-2.41 21.568,0.725c7.278,3.134 28.149,-5.364 32.444,27.761c6.885,-24.023 -4.741,-44.14 -30.998,-45.284c-28.041,-1.22 -39.398,20.706 -31.645,44.57c1.858,-10.749 2.653,-21.387 8.631,-27.772" style="fill:#92653d;"/><path d="M66.645,51.008c-3.349,3.67 -4.937,8.514 -6,13.266c-1.056,4.797 -1.639,9.684 -2.45,14.538l-0.115,0.689l-0.221,-0.671c-1.708,-5.204 -2.662,-10.701 -2.433,-16.209c0.22,-5.488 1.682,-11.008 4.657,-15.704c2.969,-4.694 7.474,-8.366 12.595,-10.502c5.127,-2.156 10.742,-2.946 16.257,-2.799c5.513,0.134 11.087,1.081 16.205,3.338c5.11,2.229 9.674,5.853 12.842,10.507c3.214,4.634 4.915,10.19 5.382,15.75c0.469,5.584 -0.265,11.201 -1.748,16.559l-1.194,4.313l-0.663,-4.472c-0.85,-5.726 -2.171,-11.517 -5.157,-16.352c-1.48,-2.402 -3.389,-4.508 -5.721,-6.002c-1.165,-0.743 -2.414,-1.353 -3.724,-1.822c-1.317,-0.455 -2.686,-0.778 -4.085,-1.001c-2.805,-0.463 -5.69,-0.466 -8.703,-0.651c-1.5,-0.113 -3.104,-0.259 -4.721,-0.904c-1.198,-0.479 -2.468,-0.676 -3.786,-0.635c-2.649,0.074 -5.418,1.16 -8.504,1.664c-1.553,0.246 -3.207,0.308 -4.846,0.046c-1.659,-0.239 -3.186,-0.94 -4.614,-1.717l1.494,-2.458c1.149,0.631 2.325,1.208 3.601,1.403c1.268,0.216 2.589,0.198 3.947,0.005c1.362,-0.206 2.76,-0.561 4.219,-0.892c1.455,-0.331 2.995,-0.659 4.632,-0.682c1.626,-0.034 3.32,0.248 4.857,0.897c1.12,0.47 2.485,0.649 3.91,0.77c2.858,0.218 5.893,0.259 8.909,0.797c1.509,0.263 3.015,0.637 4.481,1.167c1.461,0.545 2.869,1.255 4.179,2.118c2.628,1.736 4.735,4.144 6.308,6.782c3.169,5.319 4.412,11.335 5.357,17.203c-0.698,-0.042 -1.397,-0.085 -2.142,-0.142c1.496,-5.144 2.266,-10.525 1.886,-15.85c-0.377,-5.305 -1.921,-10.576 -4.897,-14.988c-2.934,-4.429 -7.202,-7.924 -12.075,-10.128c-4.877,-2.228 -10.275,-3.227 -15.663,-3.427c-5.388,-0.215 -10.854,0.488 -15.845,2.51c-4.984,2.006 -9.379,5.49 -12.325,10.013c-2.95,4.525 -4.461,9.907 -4.748,15.314c-0.295,5.423 0.575,10.882 2.479,15.986c-0.209,0.038 -0.419,0.076 -0.723,0.098c0.885,-4.828 1.546,-9.713 2.68,-14.51c1.14,-4.751 2.818,-9.599 6.226,-13.215" style="fill:#92653d;"/><path d="M128.456,48.079c-0.635,-4.015 -4.042,-10.229 -8.889,-7.283c-0.618,0.375 -0.526,1.369 0.203,1.556c0.642,0.165 1.209,0.38 1.735,0.622c-0.232,0.266 -0.318,0.645 -0.078,1.037c1.525,2.489 1.964,5.105 2.08,7.797c-0.109,0.202 -0.18,0.44 -0.186,0.723c-0.069,3.242 -0.933,6.673 -0.574,9.875c0.058,0.525 0.479,0.95 0.944,1.086c-0.903,3.466 -1.7,6.652 -1.558,8.914c0.073,1.149 1.546,1.302 1.942,0.263c2.845,-7.482 5.66,-16.514 4.381,-24.59" style="fill:#92653d;fill-rule:nonzero;"/><path d="M89.247,118.531l-2.076,-13l4.152,0l-2.076,13Z" style="fill:#92653d;"/><path d="M83.164,76.198c-0,3.819 -3.097,6.917 -6.917,6.917c-3.82,0 -6.917,-3.098 -6.917,-6.917c-0,-3.819 3.097,-6.917 6.917,-6.917c3.82,0 6.917,3.098 6.917,6.917" style="fill:#474748;fill-rule:nonzero;"/><path d="M107.664,76.198c-0,3.819 -3.097,6.917 -6.917,6.917c-3.82,0 -6.917,-3.098 -6.917,-6.917c-0,-3.819 3.097,-6.917 6.917,-6.917c3.82,0 6.917,3.098 6.917,6.917" style="fill:#474748;fill-rule:nonzero;"/><path d="M81.33,73.031c-0,0 3.334,-1 7,-1c4.087,0 7.334,1 7.334,1" style="fill:none;fill-rule:nonzero;stroke:#474748;stroke-width:1.14px;"/><path d="M117.431,40.835c-0.05,0.128 -0.097,0.25 -0.142,0.364c-0.087,0.226 -0.164,0.421 -0.227,0.583c-0.12,0.318 -0.189,0.499 -0.189,0.499l4.082,1.166c-0,-0 0.025,-0.275 0.068,-0.758c0.019,-0.238 0.042,-0.527 0.068,-0.859c0.011,-0.165 0.023,-0.339 0.035,-0.523c-0.01,-0.183 -0.022,-0.375 -0.033,-0.576c-0.009,-1.611 -0.475,-3.63 -1.128,-5.49c-0.714,-1.849 -1.622,-3.546 -2.392,-4.75c-0.359,-0.615 -0.732,-1.084 -0.957,-1.428c-0.235,-0.338 -0.369,-0.532 -0.369,-0.532c-0,-0 0.075,0.224 0.207,0.616c0.12,0.394 0.343,0.933 0.513,1.616c0.397,1.341 0.774,3.16 0.926,4.944c0.093,1.792 -0.017,3.522 -0.368,4.7c-0.032,0.15 -0.064,0.292 -0.094,0.428" style="fill:#92653d;"/><path d="M89.247,25.246l0.333,-0.048l-0.333,-0.048l-0,0.096Z" style="fill:#92653d;"/><path d="M78.204,31.817c0.428,0.903 0.899,1.549 1.182,2.056c0.3,0.492 0.472,0.773 0.472,0.773l1.696,-1.47c-0.088,0.399 -0.165,0.787 -0.22,1.146c-0.174,0.789 -0.189,1.47 -0.255,1.942c-0.049,0.477 -0.077,0.749 -0.077,0.749l4.489,-0.299c0,0 -0.04,-0.221 -0.11,-0.61c-0.053,-0.391 -0.213,-0.947 -0.254,-1.639c-0.121,-0.905 -0.163,-2.037 -0.138,-3.242l0.973,-0.424c0.054,0.083 0.104,0.17 0.164,0.249c0.229,0.331 0.448,0.647 0.657,0.948c0.23,0.29 0.494,0.538 0.727,0.783c0.472,0.49 0.9,0.912 1.323,1.175c0.814,0.575 1.308,0.885 1.308,0.885l1.83,-4.207l0.771,-0.356c0.385,1.139 0.999,2.168 1.715,2.894c0.932,0.979 1.88,1.624 2.52,1.943c0.662,0.351 1.039,0.553 1.039,0.553l1.793,-5.604c0,0 -0.22,-0.045 -0.605,-0.122c-0.424,-0.051 -0.909,-0.221 -1.451,-0.483c-0.12,-0.076 -0.252,-0.153 -0.399,-0.231c-0.153,-0.075 -0.224,-0.211 -0.36,-0.316c-0.291,-0.202 -0.438,-0.542 -0.678,-0.88c-0.378,-0.736 -0.534,-1.79 -0.477,-2.909c0.039,-1.133 0.404,-2.293 0.791,-3.369c0.446,-1.053 0.948,-2.045 1.508,-2.807c0.256,-0.404 0.532,-0.742 0.787,-1.037c0.246,-0.305 0.47,-0.566 0.679,-0.753c0.409,-0.398 0.642,-0.624 0.642,-0.624c0,0 -0.289,0.154 -0.794,0.423c-0.264,0.127 -0.557,0.317 -0.889,0.549c-0.341,0.221 -0.721,0.484 -1.099,0.816c-1.558,1.272 -3.452,3.342 -4.492,6.14c-0.041,0.115 -0.07,0.239 -0.108,0.357c-0.26,-0.78 -0.486,-1.616 -0.628,-2.478c-0.129,-0.93 -0.18,-1.878 -0.086,-2.764c0.12,-0.869 0.313,-1.707 0.652,-2.352c0.14,-0.343 0.322,-0.626 0.496,-0.875c0.159,-0.261 0.32,-0.474 0.477,-0.629c0.3,-0.332 0.471,-0.521 0.471,-0.521c0,0 -0.219,0.135 -0.602,0.372c-0.203,0.11 -0.425,0.275 -0.662,0.492c-0.252,0.203 -0.53,0.445 -0.781,0.76c-0.563,0.59 -1.042,1.426 -1.464,2.375c-0.395,0.96 -0.653,2.042 -0.812,3.144c-0.18,1.344 -0.168,2.682 -0.065,3.897c-0.985,-1.228 -1.883,-3.172 -2.356,-5.342c-0.601,-2.874 -0.594,-6.019 -0.124,-8.297c0.161,-0.875 0.375,-1.626 0.578,-2.219c0.225,-0.307 0.463,-0.585 0.662,-0.853c0.285,-0.386 0.591,-0.665 0.84,-0.903c0.5,-0.483 0.786,-0.759 0.786,-0.759c0,0 -0.353,0.185 -0.97,0.512c-0.313,0.163 -0.701,0.355 -1.095,0.654c-0.393,0.297 -0.905,0.572 -1.343,1.012c-0.464,0.414 -0.984,0.863 -1.431,1.439c-0.506,0.537 -0.91,1.194 -1.355,1.881c-0.803,1.408 -1.437,3.07 -1.799,4.8c-0.333,1.725 -0.44,3.489 -0.405,5.134c0.075,1.629 0.229,3.163 0.471,4.437c0.105,0.629 0.22,1.199 0.332,1.706c-0.039,0.109 -0.079,0.218 -0.117,0.327c-0.187,-0.176 -0.379,-0.364 -0.568,-0.581c-1.168,-1.18 -2.497,-2.919 -3.487,-4.926c-0.942,-2.015 -1.33,-4.308 -1.388,-6.082c-0.043,-0.884 0.082,-1.621 0.096,-2.149c0.038,-0.529 0.059,-0.831 0.059,-0.831c0,0 -0.104,0.282 -0.286,0.776c-0.16,0.501 -0.497,1.205 -0.713,2.103c-0.457,1.785 -0.78,4.34 -0.38,6.942c0.434,2.566 1.402,5.072 2.337,6.799" style="fill:#92653d;"/><path d="M57.276,71.656c0.237,-1.096 0.361,-2.167 0.443,-3.153c0.105,0.917 0.214,1.862 0.341,2.815c0.014,0.113 0.033,0.225 0.048,0.338l-0.832,0Zm3.298,7.229c-0.662,-2.038 -1.083,-4.839 -1.081,-7.676c-0.023,-2.832 0.117,-5.735 -0.054,-7.971c-0.068,-1.113 -0.182,-2.054 -0.294,-2.706c-0.111,-0.656 -0.174,-1.031 -0.174,-1.031l-2.782,0.726c-0,0 0.098,0.325 0.268,0.893c0.127,0.415 0.272,0.971 0.416,1.637l-1.286,-0.258c-0,0 -0.029,0.365 -0.081,1.004c-0.074,0.643 -0.041,1.515 -0.014,2.541c0.068,2.034 0.411,4.621 -0.108,7.032l-0.29,0.858l-0.145,0.434l-0.213,0.388l-0.212,0.388l-0.26,0.327c-0.159,0.25 -0.381,0.363 -0.573,0.546c-0.423,0.249 -0.905,0.285 -1.338,0.078c-0.427,-0.2 -0.791,-0.575 -0.983,-0.987c-0.461,-0.818 -0.268,-1.697 0.077,-2.122c0.157,-0.239 0.351,-0.356 0.479,-0.443c0.128,-0.089 0.196,-0.137 0.196,-0.137c-0,0 -0.074,0.038 -0.212,0.109c-0.14,0.071 -0.357,0.162 -0.557,0.391c-0.429,0.393 -0.797,1.36 -0.395,2.38c0.164,0.51 0.515,1.024 1.068,1.39c0.545,0.379 1.381,0.463 2.081,0.15c1.228,-0.632 1.918,-1.78 2.481,-2.961c0.01,0.152 0.021,0.308 0.033,0.473c0.044,0.792 0.16,1.79 0.252,2.811c0.041,1.024 0.325,2.142 0.578,3.235c0.57,2.162 1.376,4.158 1.911,5.686c0.456,1.552 0.76,2.586 0.76,2.586c-0,0 -0.13,-1.078 -0.324,-2.695c-0.277,-1.6 -0.744,-3.742 -0.93,-5.823c-0.06,-1.041 -0.158,-2.05 -0.031,-3.058c0.039,-0.494 0.068,-0.96 0.099,-1.406c0.354,1.266 0.771,2.424 1.219,3.373c0.468,0.983 0.891,1.782 1.238,2.31c0.331,0.535 0.521,0.841 0.521,0.841c-0,0 -0.15,-0.327 -0.412,-0.898c-0.276,-0.563 -0.594,-1.404 -0.928,-2.415" style="fill:#92653d;"/><path d="M66.456,42.091c-0.096,-0.095 -0.19,-0.245 -0.256,-0.442c-0.052,-0.172 -0.055,-0.416 -0.047,-0.532c0.02,-0.143 0.094,-0.253 0.094,-0.253c-0,-0 -0.051,-0.08 -0.218,-0.179c-0.196,-0.109 -0.387,-0.156 -0.657,-0.196c-0.486,-0.035 -1.042,0.203 -1.042,0.203l2.281,1.532c-0,-0 -0.065,-0.039 -0.155,-0.133" style="fill:#92653d;"/><path d="M98.266,56.015c-1.946,-0.91 -4.579,-1.968 -7.401,-2.673c1.02,-0.144 1.888,-0.267 2.52,-0.357c0.758,-0.098 1.195,-0.12 1.195,-0.12c-0,-0 -0.437,-0.023 -1.204,-0.003c-0.766,0.029 -1.86,0.071 -3.173,0.121c-0.265,0.011 -0.545,0.023 -0.827,0.035c-0.589,-0.121 -1.176,-0.239 -1.763,-0.324c-0.42,-0.138 -0.861,-0.281 -1.345,-0.42c-0.387,-0.113 -0.787,-0.231 -1.193,-0.351c-0.412,-0.108 -0.844,-0.184 -1.272,-0.279c-0.873,-0.215 -1.703,-0.264 -2.5,-0.38c-0.796,-0.102 -1.538,-0.195 -2.175,-0.276c-1.279,-0.161 -2.131,-0.269 -2.131,-0.269l-0,2.187c-2.132,-0.22 -4.081,-0.599 -5.446,-1.206c-1.056,-0.466 -1.61,-1.038 -1.749,-1.389c-0.138,-0.36 -0.1,-0.597 -0.125,-0.59l-0.662,0.066c-0.137,-0.222 -0.216,-0.35 -0.216,-0.35l-0.709,0.443l-1.273,0.128c-0,-0 0.035,0.159 0.103,0.459c0.006,0.034 0.029,0.084 0.037,0.121l-0.304,0.191l-2.103,-0.702c-0,-0 -0.038,0.224 -0.105,0.616c-0.012,0.09 -0.036,0.214 -0.054,0.317l-0.039,0.003c-0,-0 0.01,0.034 0.023,0.085c-0.061,0.34 -0.131,0.727 -0.169,1.21c-0.117,1.361 -0.011,3.239 0.626,4.914c0.648,1.67 1.668,3.036 2.421,4.036c0.797,0.964 1.327,1.607 1.327,1.607c-0,-0 -0.378,-0.738 -0.945,-1.844c-0.517,-1.12 -1.182,-2.638 -1.414,-4.173c-0.059,-0.417 -0.079,-0.826 -0.076,-1.227c0.636,1.064 1.446,2.147 2.325,3.128c1.485,1.502 3.098,2.788 4.48,3.459c0.637,0.408 1.27,0.57 1.664,0.745c0.402,0.157 0.633,0.246 0.633,0.246c-0,-0 -0.198,-0.151 -0.543,-0.415c-0.332,-0.282 -0.857,-0.584 -1.345,-1.141c-1.08,-0.968 -2.187,-2.567 -3.07,-4.188c-0.36,-0.865 -0.787,-1.671 -0.977,-2.502c-0.105,-0.408 -0.262,-0.781 -0.311,-1.156c-0.011,-0.08 -0.021,-0.147 -0.032,-0.225c0.035,0.026 0.066,0.053 0.102,0.08c1.769,1.366 4.432,2.576 7.205,3.188c2.781,0.578 5.686,0.497 7.663,-0.256c0.496,-0.173 0.942,-0.341 1.305,-0.569c0.371,-0.204 0.7,-0.363 0.927,-0.57c0.473,-0.369 0.743,-0.58 0.743,-0.58c-0,-0 -0.294,0.172 -0.809,0.475c-0.243,0.17 -0.589,0.284 -0.97,0.434c-0.373,0.172 -0.825,0.276 -1.316,0.378c-1.959,0.465 -4.68,0.169 -7.156,-0.697c-0.645,-0.234 -1.272,-0.505 -1.874,-0.8c1.373,0.088 2.81,0.076 4.26,0.008c0.688,0.071 1.507,0.081 2.396,0.033c1.231,-0.059 2.56,-0.261 3.964,-0.283c1.413,-0.054 2.934,-0.014 4.448,0.16c3.036,0.315 6.037,1.123 8.243,1.86c1.104,0.367 2.018,0.703 2.648,0.961c0.636,0.247 0.999,0.388 0.999,0.388c-0,-0 -0.345,-0.182 -0.948,-0.5c-0.598,-0.33 -1.469,-0.77 -2.533,-1.267" style="fill:#92653d;"/><path d="M120.008,87.118c0.072,-0.37 0.161,-0.729 0.248,-1.088c-0.12,1.033 -0.255,2.001 -0.389,2.855c-0.032,0.203 -0.063,0.392 -0.093,0.582c-0.037,-0.773 0.097,-1.586 0.234,-2.349m0.052,-13.211l-0.013,0.003c0.001,-0.018 0.003,-0.036 0.004,-0.054c0.003,0.017 0.006,0.034 0.009,0.051m-0.452,4.624c0,0.009 0.001,0.018 0.001,0.026l-0.004,-0.002l0.003,-0.024Zm7.882,-2.311c-0.01,0.111 -0.034,0.368 -0.07,0.748c-0.102,0.5 -0.287,1.236 -0.824,1.889c-0.244,0.343 -0.626,0.598 -1.023,0.786c-0.414,0.17 -0.881,0.179 -1.29,0.026c-0.85,-0.289 -1.344,-1.322 -1.554,-2.338c-0.412,-2.129 0.461,-4.179 1.027,-5.959c0.147,-0.435 0.262,-0.858 0.352,-1.252c0.101,-0.384 0.176,-0.726 0.205,-1.028c0.077,-0.596 0.121,-0.936 0.121,-0.936l-2.875,0c0,0 0.004,0.235 0.011,0.639l-1.273,0.387c0.021,-0.913 0.023,-1.779 0.001,-2.58c0.017,-0.792 -0.022,-1.516 -0.078,-2.16c-0.045,-0.644 -0.084,-1.206 -0.116,-1.669c-0.066,-0.927 -0.103,-1.457 -0.103,-1.457l-2.843,0.43c0,0 0.079,0.498 0.216,1.369c0.069,0.437 0.153,0.967 0.248,1.575c0.108,0.608 0.206,1.296 0.255,2.058c0.347,3.025 0.434,7.123 0.35,11.244c-0.01,0.301 -0.02,0.6 -0.03,0.9c-0.078,0.422 -0.123,0.907 -0.075,1.391c0.004,0.053 0.014,0.11 0.018,0.163c-0.127,3.273 -0.296,6.423 -0.399,8.91c-0.097,3.105 -0.161,5.175 -0.161,5.175c0,0 0.24,-2.026 0.601,-5.071c0.071,0.409 0.166,0.82 0.329,1.228c0.19,0.483 0.442,0.975 0.82,1.387c-0.052,0.286 -0.084,0.456 -0.084,0.456c0,0 0.049,-0.154 0.129,-0.413c0.1,0.104 0.201,0.208 0.32,0.3c0.582,0.466 1.349,0.642 1.986,0.564c0.63,-0.051 1.258,-0.297 1.691,-0.707c0.431,-0.412 0.66,-0.909 0.8,-1.356c0.262,-0.908 0.242,-1.668 0.24,-2.192c-0.014,-0.524 -0.041,-0.821 -0.041,-0.821c0,0 -0.018,0.299 -0.082,0.815c-0.073,0.509 -0.177,1.262 -0.536,2.036c-0.183,0.38 -0.445,0.755 -0.805,1.003c-0.359,0.245 -0.813,0.346 -1.296,0.313c-0.937,-0.031 -1.529,-0.726 -1.746,-1.715c0.123,-0.415 0.256,-0.874 0.4,-1.378c0.609,-2.142 1.326,-5.035 1.764,-8.017c0.068,-0.535 0.124,-1.072 0.173,-1.608c0.032,0.039 0.058,0.081 0.093,0.119c0.423,0.524 1.037,0.949 1.709,1.073c0.665,0.136 1.333,-0.007 1.829,-0.309c0.481,-0.318 0.87,-0.697 1.091,-1.123c0.792,-1.477 0.554,-2.626 0.525,-2.895" style="fill:#92653d;"/></g></g></g></svg>